<svg width="16" height="18" viewBox="0 0 16 18" fill="none" xmlns="http://www.w3.org/2000/svg">
<path d="M8.5288 17.5194L8.51814 17.5211L8.45503 17.5514L8.43725 17.5548L8.4248 17.5514L8.36169 17.5203C8.35221 17.518 8.3451 17.5197 8.34036 17.5254L8.3368 17.5341L8.32169 17.9042L8.32614 17.9215L8.33503 17.9328L8.42747 17.9968L8.4408 18.0002L8.45147 17.9968L8.54391 17.9328L8.55458 17.9189L8.55814 17.9042L8.54303 17.535C8.54066 17.5257 8.53591 17.5205 8.5288 17.5194ZM8.76347 17.4217L8.75103 17.4234L8.58747 17.5038L8.57858 17.5125L8.57592 17.522L8.59191 17.8938L8.59636 17.9042L8.60347 17.9111L8.78214 17.9907C8.7934 17.9936 8.80199 17.9913 8.80791 17.9838L8.81147 17.9717L8.78125 17.4407C8.77829 17.4297 8.77236 17.4234 8.76347 17.4217ZM8.12791 17.4234C8.124 17.4211 8.11932 17.4203 8.11484 17.4213C8.11037 17.4223 8.10646 17.4249 8.10391 17.4286L8.09858 17.4407L8.06836 17.9717C8.06895 17.9821 8.07399 17.989 8.08347 17.9924L8.0968 17.9907L8.27547 17.9103L8.28436 17.9034L8.28703 17.8938L8.30303 17.522L8.30036 17.5116L8.29147 17.503L8.12791 17.4234Z" fill="#A0A0A0"/>
<path d="M11.5556 10.3774C12.7164 10.3774 13.7049 11.0995 14.0711 12.107H15.1111C15.3469 12.107 15.573 12.1981 15.7397 12.3603C15.9064 12.5225 16 12.7424 16 12.9718C16 13.2011 15.9064 13.4211 15.7397 13.5833C15.573 13.7454 15.3469 13.8366 15.1111 13.8366H14.0711C13.8875 14.3429 13.5469 14.7814 13.0964 15.0915C12.6458 15.4017 12.1075 15.5682 11.5556 15.5682C11.0036 15.5682 10.4653 15.4017 10.0148 15.0915C9.56421 14.7814 9.22365 14.3429 9.04 13.8366H0.888889C0.653141 13.8366 0.427048 13.7454 0.260349 13.5833C0.0936505 13.4211 0 13.2011 0 12.9718C0 12.7424 0.0936505 12.5225 0.260349 12.3603C0.427048 12.1981 0.653141 12.107 0.888889 12.107H9.04C9.2239 11.601 9.56459 11.1629 10.0151 10.8531C10.4657 10.5433 11.0039 10.3771 11.5556 10.3774ZM4.44444 5.18871C4.96799 5.18864 5.47998 5.33851 5.91656 5.61962C6.35315 5.90074 6.69502 6.30066 6.89956 6.76954L6.95911 6.91828H15.1111C15.3377 6.91852 15.5556 7.00292 15.7203 7.15423C15.8851 7.30554 15.9842 7.51234 15.9975 7.73238C16.0108 7.95242 15.9372 8.16908 15.7918 8.33811C15.6464 8.50713 15.4401 8.61576 15.2151 8.64179L15.1111 8.64785H6.96C6.7808 9.14102 6.4526 9.57 6.01843 9.87854C5.58426 10.1871 5.06439 10.3608 4.52698 10.3769C3.98957 10.3929 3.45971 10.2507 3.00687 9.96866C2.55403 9.68666 2.19935 9.27812 1.98933 8.79659L1.92889 8.64785H0.888889C0.662329 8.6476 0.444416 8.5632 0.279673 8.41189C0.114929 8.26058 0.0157911 8.05378 0.00251367 7.83374C-0.0107638 7.61371 0.0628219 7.39704 0.208235 7.22802C0.353649 7.05899 0.559915 6.95037 0.784889 6.92433L0.888889 6.91828H1.92889C2.11279 6.41224 2.45348 5.97416 2.90402 5.66439C3.35455 5.35462 3.89275 5.18843 4.44444 5.18871ZM11.5556 3.56701e-07C12.7164 3.56701e-07 13.7049 0.722096 14.0711 1.72957H15.1111C15.3469 1.72957 15.573 1.82068 15.7397 1.98286C15.9064 2.14504 16 2.365 16 2.59435C16 2.82371 15.9064 3.04367 15.7397 3.20585C15.573 3.36803 15.3469 3.45914 15.1111 3.45914H14.0711C13.8875 3.9655 13.5469 4.40397 13.0964 4.71412C12.6458 5.02427 12.1075 5.19083 11.5556 5.19083C11.0036 5.19083 10.4653 5.02427 10.0148 4.71412C9.56421 4.40397 9.22365 3.9655 9.04 3.45914H0.888889C0.653141 3.45914 0.427048 3.36803 0.260349 3.20585C0.0936505 3.04367 0 2.82371 0 2.59435C0 2.365 0.0936505 2.14504 0.260349 1.98286C0.427048 1.82068 0.653141 1.72957 0.888889 1.72957H9.04C9.2239 1.22354 9.56459 0.785447 10.0151 0.47568C10.4657 0.165914 11.0039 -0.000281021 11.5556 3.56701e-07Z" fill="#A0A0A0"/>
</svg>
