<svg width="23" height="13" viewBox="0 0 23 13" fill="none" xmlns="http://www.w3.org/2000/svg">
<path fill-rule="evenodd" clip-rule="evenodd" d="M1.54416 5.5185C2.62085 4.36637 4.25452 3.04688 6.35232 2.14825C5.21206 3.34116 4.58178 4.89225 4.584 6.5C4.584 8.17375 5.25328 9.69963 6.35232 10.8518C4.25509 9.95313 2.62085 8.63363 1.54416 7.4815C1.28781 7.21201 1.14599 6.86241 1.14599 6.5C1.14599 6.13759 1.28781 5.78799 1.54416 5.5185ZM0.685211 4.80133C2.63804 2.71158 6.34946 0.0503752 11.3582 0.000541886L11.4602 0H11.5003C16.5806 0 20.3436 2.69208 22.3148 4.80133C22.7561 5.26881 23 5.87345 23 6.5C23 7.12655 22.7561 7.73119 22.3148 8.19867C20.3436 10.3079 16.5806 13 11.5003 13H11.4602L11.3582 12.9995C6.35003 12.9496 2.63804 10.2884 0.685211 8.19867C0.243901 7.73119 0 7.12655 0 6.5C0 5.87345 0.243901 5.26881 0.685211 4.80133ZM11.4762 1.08333L11.3725 1.08388C8.24786 1.12829 5.73003 3.536 5.73003 6.5C5.73003 9.464 8.24843 11.8717 11.3725 11.9161L11.4762 11.9167C14.6335 11.9085 17.1903 9.48621 17.1903 6.5C17.1903 3.51379 14.6335 1.09146 11.4762 1.08333ZM18.3364 6.5C18.3364 8.20083 17.6447 9.75 16.513 10.9086C18.6756 10.0095 20.3562 8.658 21.4558 7.4815C21.7122 7.21201 21.854 6.86241 21.854 6.5C21.854 6.13759 21.7122 5.78799 21.4558 5.5185C20.3562 4.342 18.6756 2.99054 16.513 2.09138C17.6873 3.2909 18.3386 4.86566 18.3364 6.5ZM11.5003 9.75C12.0812 9.75012 12.6527 9.61111 13.1614 9.34593C13.67 9.08075 14.0994 8.69805 14.4092 8.23356C14.7191 7.76907 14.8994 7.23794 14.9333 6.68975C14.9672 6.14155 14.8536 5.59417 14.6032 5.09871C14.4974 5.20218 14.371 5.28471 14.2312 5.34148C14.0913 5.39826 13.941 5.42815 13.7888 5.4294C13.6366 5.43065 13.4857 5.40324 13.3449 5.34877C13.204 5.29429 13.0761 5.21385 12.9685 5.11214C12.8609 5.01042 12.7758 4.88946 12.7181 4.75633C12.6605 4.62319 12.6315 4.48053 12.6329 4.33669C12.6342 4.19285 12.6658 4.05069 12.7258 3.91852C12.7859 3.78635 12.8732 3.66681 12.9827 3.56687C12.5171 3.35683 12.0074 3.24853 11.4915 3.25002C10.9756 3.2515 10.4666 3.36272 10.0023 3.57544C9.53808 3.78816 9.13042 4.09692 8.80957 4.47883C8.48871 4.86075 8.26291 5.30603 8.14887 5.78166C8.03484 6.2573 8.03551 6.7511 8.15083 7.22646C8.26615 7.70182 8.49317 8.14655 8.81505 8.52768C9.13694 8.90882 9.54544 9.21659 10.0103 9.42819C10.4751 9.63978 10.9844 9.74977 11.5003 9.75Z" fill="#A0A0A0"/>
</svg>
