<svg width="1380" height="677" viewBox="0 0 1380 677" fill="none" xmlns="http://www.w3.org/2000/svg">
<g clip-path="url(#clip0_7_2)">
<rect width="1380" height="677" fill="white"/>
<ellipse cx="56.8587" cy="227.613" rx="2.76078" ry="2.75384" transform="rotate(24.2594 56.8587 227.613)" fill="#EAEAEB" fill-opacity="0.3"/>
<ellipse cx="14.434" cy="208.192" rx="1.38039" ry="1.37692" transform="rotate(24.2594 14.434 208.192)" fill="#EAEAEB" fill-opacity="0.3"/>
<ellipse cx="265.766" cy="321.762" rx="5.52157" ry="5.50767" transform="rotate(24.2594 265.766 321.762)" fill="#EAEAEB" fill-opacity="0.3"/>
<ellipse cx="182.569" cy="283.964" rx="4.69333" ry="4.68152" transform="rotate(24.2594 182.569 283.964)" fill="#EAEAEB" fill-opacity="0.3"/>
<ellipse cx="35.7151" cy="218.084" rx="2.20863" ry="2.20307" transform="rotate(24.2594 35.7151 218.084)" fill="#EAEAEB" fill-opacity="0.3"/>
<ellipse cx="224.351" cy="302.794" rx="5.24549" ry="5.23229" transform="rotate(24.2594 224.351 302.794)" fill="#EAEAEB" fill-opacity="0.3"/>
<ellipse cx="203.347" cy="293.63" rx="4.96941" ry="4.95691" transform="rotate(24.2594 203.347 293.63)" fill="#EAEAEB" fill-opacity="0.3"/>
<ellipse cx="245.127" cy="312.461" rx="5.52157" ry="5.50767" transform="rotate(24.2594 245.127 312.461)" fill="#EAEAEB" fill-opacity="0.3"/>
<ellipse cx="140.787" cy="265.136" rx="4.14118" ry="4.13076" transform="rotate(24.2594 140.787 265.136)" fill="#EAEAEB" fill-opacity="0.3"/>
<ellipse cx="78.0003" cy="237.14" rx="3.31294" ry="3.3046" transform="rotate(24.2594 78.0003 237.14)" fill="#EAEAEB" fill-opacity="0.3"/>
<ellipse cx="119.783" cy="255.971" rx="3.8651" ry="3.85537" transform="rotate(24.2594 119.783 255.971)" fill="#EAEAEB" fill-opacity="0.3"/>
<ellipse cx="99.0043" cy="246.304" rx="3.58902" ry="3.57999" transform="rotate(24.2594 99.0043 246.304)" fill="#EAEAEB" fill-opacity="0.3"/>
<ellipse cx="161.566" cy="274.801" rx="4.41725" ry="4.40614" transform="rotate(24.2594 161.566 274.801)" fill="#EAEAEB" fill-opacity="0.3"/>
<ellipse cx="2.76078" cy="2.75384" rx="2.76078" ry="2.75384" transform="matrix(-0.911695 -0.410869 -0.410869 0.911695 498.467 423.609)" fill="#EAEAEB" fill-opacity="0.3"/>
<ellipse cx="1.38039" cy="1.37692" rx="1.38039" ry="1.37692" transform="matrix(-0.911695 -0.410869 -0.410869 0.911695 539.295 443.213)" fill="#EAEAEB" fill-opacity="0.3"/>
<ellipse cx="5.52157" cy="5.50767" rx="5.52157" ry="5.50767" transform="matrix(-0.911695 -0.410869 -0.410869 0.911695 293.204 328.082)" fill="#EAEAEB" fill-opacity="0.3"/>
<ellipse cx="4.69333" cy="4.68152" rx="4.69333" ry="4.68152" transform="matrix(-0.911695 -0.410869 -0.410869 0.911695 375.537 365.79)" fill="#EAEAEB" fill-opacity="0.3"/>
<ellipse cx="2.20863" cy="2.20307" rx="2.20863" ry="2.20307" transform="matrix(-0.911695 -0.410869 -0.410869 0.911695 518.88 433.413)" fill="#EAEAEB" fill-opacity="0.3"/>
<ellipse cx="5.24549" cy="5.23229" rx="5.24549" ry="5.23229" transform="matrix(-0.911695 -0.410869 -0.410869 0.911695 334.483 346.685)" fill="#EAEAEB" fill-opacity="0.3"/>
<ellipse cx="4.96941" cy="4.95691" rx="4.96941" ry="4.95691" transform="matrix(-0.911695 -0.410869 -0.410869 0.911695 354.896 356.488)" fill="#EAEAEB" fill-opacity="0.3"/>
<ellipse cx="5.52157" cy="5.50767" rx="5.52157" ry="5.50767" transform="matrix(-0.911695 -0.410869 -0.410869 0.911695 313.843 337.385)" fill="#EAEAEB" fill-opacity="0.3"/>
<ellipse cx="4.14118" cy="4.13076" rx="4.14118" ry="4.13076" transform="matrix(-0.911695 -0.410869 -0.410869 0.911695 416.588 384.894)" fill="#EAEAEB" fill-opacity="0.3"/>
<ellipse cx="3.31294" cy="3.3046" rx="3.31294" ry="3.3046" transform="matrix(-0.911695 -0.410869 -0.410869 0.911695 478.054 413.803)" fill="#EAEAEB" fill-opacity="0.3"/>
<ellipse cx="3.8651" cy="3.85537" rx="3.8651" ry="3.85537" transform="matrix(-0.911695 -0.410869 -0.410869 0.911695 436.999 394.698)" fill="#EAEAEB" fill-opacity="0.3"/>
<ellipse cx="3.58902" cy="3.57999" rx="3.58902" ry="3.57999" transform="matrix(-0.911695 -0.410869 -0.410869 0.911695 457.637 404.001)" fill="#EAEAEB" fill-opacity="0.3"/>
<ellipse cx="4.41725" cy="4.40614" rx="4.41725" ry="4.40614" transform="matrix(-0.911695 -0.410869 -0.410869 0.911695 395.949 375.596)" fill="#EAEAEB" fill-opacity="0.3"/>
<ellipse cx="57.9277" cy="341.441" rx="2.19512" ry="2.75384" transform="rotate(24.2594 57.9277 341.441)" fill="#EAEAEB" fill-opacity="0.3"/>
<ellipse cx="24.2181" cy="325.949" rx="1.09756" ry="1.37692" transform="rotate(24.2594 24.2181 325.949)" fill="#EAEAEB" fill-opacity="0.3"/>
<ellipse cx="224.035" cy="416.3" rx="4.39024" ry="5.50767" transform="rotate(24.2594 224.035 416.3)" fill="#EAEAEB" fill-opacity="0.3"/>
<ellipse cx="157.903" cy="386.195" rx="3.7317" ry="4.68152" transform="rotate(24.2594 157.903 386.195)" fill="#EAEAEB" fill-opacity="0.3"/>
<ellipse cx="41.1172" cy="333.866" rx="1.75609" ry="2.20307" transform="rotate(24.2594 41.1172 333.866)" fill="#EAEAEB" fill-opacity="0.3"/>
<ellipse cx="191.128" cy="401.169" rx="4.17072" ry="5.23229" transform="rotate(24.2594 191.128 401.169)" fill="#EAEAEB" fill-opacity="0.3"/>
<ellipse cx="174.401" cy="393.932" rx="3.95121" ry="4.95691" transform="rotate(24.2594 174.401 393.932)" fill="#EAEAEB" fill-opacity="0.3"/>
<ellipse cx="207.624" cy="408.904" rx="4.39024" ry="5.50767" transform="rotate(24.2594 207.624 408.904)" fill="#EAEAEB" fill-opacity="0.3"/>
<ellipse cx="124.686" cy="371.225" rx="3.29268" ry="4.13076" transform="rotate(24.2594 124.686 371.225)" fill="#EAEAEB" fill-opacity="0.3"/>
<ellipse cx="74.7381" cy="349.017" rx="2.63414" ry="3.3046" transform="rotate(24.2594 74.7381 349.017)" fill="#EAEAEB" fill-opacity="0.3"/>
<ellipse cx="107.957" cy="363.99" rx="3.07317" ry="3.85537" transform="rotate(24.2594 107.957 363.99)" fill="#EAEAEB" fill-opacity="0.3"/>
<ellipse cx="91.4604" cy="356.252" rx="2.85365" ry="3.57999" transform="rotate(24.2594 91.4604 356.252)" fill="#EAEAEB" fill-opacity="0.3"/>
<ellipse cx="141.183" cy="378.962" rx="3.51219" ry="4.40614" transform="rotate(24.2594 141.183 378.962)" fill="#EAEAEB" fill-opacity="0.3"/>
<ellipse cx="2.19512" cy="2.75384" rx="2.19512" ry="2.75384" transform="matrix(-0.911695 -0.410869 -0.410869 0.911695 409.29 496.765)" fill="#EAEAEB" fill-opacity="0.3"/>
<ellipse cx="1.09756" cy="1.37692" rx="1.09756" ry="1.37692" transform="matrix(-0.911695 -0.410869 -0.410869 0.911695 441.656 512.56)" fill="#EAEAEB" fill-opacity="0.3"/>
<ellipse cx="4.39024" cy="5.50767" rx="4.39024" ry="5.50767" transform="matrix(-0.911695 -0.410869 -0.410869 0.911695 246.314 420.298)" fill="#EAEAEB" fill-opacity="0.3"/>
<ellipse cx="3.7317" cy="4.68152" rx="3.7317" ry="4.68152" transform="matrix(-0.911695 -0.410869 -0.410869 0.911695 311.731 450.382)" fill="#EAEAEB" fill-opacity="0.3"/>
<ellipse cx="1.75609" cy="2.20307" rx="1.75609" ry="2.20307" transform="matrix(-0.911695 -0.410869 -0.410869 0.911695 425.472 504.663)" fill="#EAEAEB" fill-opacity="0.3"/>
<ellipse cx="4.17072" cy="5.23229" rx="4.17072" ry="5.23229" transform="matrix(-0.911695 -0.410869 -0.410869 0.911695 279.137 435.089)" fill="#EAEAEB" fill-opacity="0.3"/>
<ellipse cx="3.95121" cy="4.95691" rx="3.95121" ry="4.95691" transform="matrix(-0.911695 -0.410869 -0.410869 0.911695 295.321 442.986)" fill="#EAEAEB" fill-opacity="0.3"/>
<ellipse cx="4.39024" cy="5.50767" rx="4.39024" ry="5.50767" transform="matrix(-0.911695 -0.410869 -0.410869 0.911695 262.725 427.694)" fill="#EAEAEB" fill-opacity="0.3"/>
<ellipse cx="3.29268" cy="4.13076" rx="3.29268" ry="4.13076" transform="matrix(-0.911695 -0.410869 -0.410869 0.911695 344.327 465.675)" fill="#EAEAEB" fill-opacity="0.3"/>
<ellipse cx="2.63414" cy="3.3046" rx="2.63414" ry="3.3046" transform="matrix(-0.911695 -0.410869 -0.410869 0.911695 393.104 488.868)" fill="#EAEAEB" fill-opacity="0.3"/>
<ellipse cx="3.07317" cy="3.85537" rx="3.07317" ry="3.85537" transform="matrix(-0.911695 -0.410869 -0.410869 0.911695 360.51 473.573)" fill="#EAEAEB" fill-opacity="0.3"/>
<ellipse cx="2.85365" cy="3.57999" rx="2.85365" ry="3.57999" transform="matrix(-0.911695 -0.410869 -0.410869 0.911695 376.921 480.971)" fill="#EAEAEB" fill-opacity="0.3"/>
<ellipse cx="3.51219" cy="4.40614" rx="3.51219" ry="4.40614" transform="matrix(-0.911695 -0.410869 -0.410869 0.911695 327.914 458.281)" fill="#EAEAEB" fill-opacity="0.3"/>
<ellipse cx="86.8776" cy="411.163" rx="1.54221" ry="2.75384" transform="rotate(24.2594 86.8776 411.163)" fill="#EAEAEB" fill-opacity="0.3"/>
<ellipse cx="63.2311" cy="400.206" rx="0.771492" ry="1.37692" transform="rotate(24.2594 63.2311 400.206)" fill="#EAEAEB" fill-opacity="0.3"/>
<ellipse cx="203.579" cy="463.759" rx="3.08442" ry="5.50767" transform="rotate(24.2594 203.579 463.759)" fill="#EAEAEB" fill-opacity="0.3"/>
<ellipse cx="157.152" cy="442.532" rx="2.62176" ry="4.68152" transform="rotate(24.2594 157.152 442.532)" fill="#EAEAEB" fill-opacity="0.3"/>
<ellipse cx="75.0673" cy="405.845" rx="1.23377" ry="2.20307" transform="rotate(24.2594 75.0673 405.845)" fill="#EAEAEB" fill-opacity="0.3"/>
<ellipse cx="180.493" cy="453.051" rx="2.9302" ry="5.23229" transform="rotate(24.2594 180.493 453.051)" fill="#EAEAEB" fill-opacity="0.3"/>
<ellipse cx="168.708" cy="448.042" rx="2.77598" ry="4.95691" transform="rotate(24.2594 168.708 448.042)" fill="#EAEAEB" fill-opacity="0.3"/>
<ellipse cx="192.051" cy="458.563" rx="3.08442" ry="5.50767" transform="rotate(24.2594 192.051 458.563)" fill="#EAEAEB" fill-opacity="0.3"/>
<ellipse cx="133.813" cy="432.016" rx="2.31332" ry="4.13076" transform="rotate(24.2594 133.813 432.016)" fill="#EAEAEB" fill-opacity="0.3"/>
<ellipse cx="98.6886" cy="416.49" rx="1.85065" ry="3.3046" transform="rotate(24.2594 98.6886 416.49)" fill="#EAEAEB" fill-opacity="0.3"/>
<ellipse cx="122.029" cy="427.005" rx="2.1591" ry="3.85537" transform="rotate(24.2594 122.029 427.005)" fill="#EAEAEB" fill-opacity="0.3"/>
<ellipse cx="110.471" cy="421.495" rx="2.00487" ry="3.57999" transform="rotate(24.2594 110.471 421.495)" fill="#EAEAEB" fill-opacity="0.3"/>
<ellipse cx="145.369" cy="437.526" rx="2.46754" ry="4.40614" transform="rotate(24.2594 145.369 437.526)" fill="#EAEAEB" fill-opacity="0.3"/>
<ellipse cx="1.54221" cy="2.75384" rx="1.54221" ry="2.75384" transform="matrix(-0.911695 -0.410869 -0.410869 0.911695 334.063 519.545)" fill="#EAEAEB" fill-opacity="0.3"/>
<ellipse cx="0.771492" cy="1.37692" rx="0.771492" ry="1.37692" transform="matrix(-0.911695 -0.410869 -0.410869 0.911695 356.668 530.94)" fill="#EAEAEB" fill-opacity="0.3"/>
<ellipse cx="3.08442" cy="5.50767" rx="3.08442" ry="5.50767" transform="matrix(-0.911695 -0.410869 -0.410869 0.911695 219.898 465.075)" fill="#EAEAEB" fill-opacity="0.3"/>
<ellipse cx="2.62176" cy="4.68152" rx="2.62176" ry="4.68152" transform="matrix(-0.911695 -0.410869 -0.410869 0.911695 265.793 486.358)" fill="#EAEAEB" fill-opacity="0.3"/>
<ellipse cx="1.23377" cy="2.20307" rx="1.23377" ry="2.20307" transform="matrix(-0.911695 -0.410869 -0.410869 0.911695 345.365 525.243)" fill="#EAEAEB" fill-opacity="0.3"/>
<ellipse cx="2.9302" cy="5.23229" rx="2.9302" ry="5.23229" transform="matrix(-0.911695 -0.410869 -0.410869 0.911695 242.959 475.468)" fill="#EAEAEB" fill-opacity="0.3"/>
<ellipse cx="2.77598" cy="4.95691" rx="2.77598" ry="4.95691" transform="matrix(-0.911695 -0.410869 -0.410869 0.911695 254.261 481.164)" fill="#EAEAEB" fill-opacity="0.3"/>
<ellipse cx="3.08442" cy="5.50767" rx="3.08442" ry="5.50767" transform="matrix(-0.911695 -0.410869 -0.410869 0.911695 231.428 470.271)" fill="#EAEAEB" fill-opacity="0.3"/>
<ellipse cx="2.31332" cy="4.13076" rx="2.31332" ry="4.13076" transform="matrix(-0.911695 -0.410869 -0.410869 0.911695 288.624 497.255)" fill="#EAEAEB" fill-opacity="0.3"/>
<ellipse cx="1.85065" cy="3.3046" rx="1.85065" ry="3.3046" transform="matrix(-0.911695 -0.410869 -0.410869 0.911695 322.761 513.846)" fill="#EAEAEB" fill-opacity="0.3"/>
<ellipse cx="2.1591" cy="3.85537" rx="2.1591" ry="3.85537" transform="matrix(-0.911695 -0.410869 -0.410869 0.911695 299.927 502.953)" fill="#EAEAEB" fill-opacity="0.3"/>
<ellipse cx="2.00487" cy="3.57999" rx="2.00487" ry="3.57999" transform="matrix(-0.911695 -0.410869 -0.410869 0.911695 311.456 508.148)" fill="#EAEAEB" fill-opacity="0.3"/>
<ellipse cx="2.46754" cy="4.40614" rx="2.46754" ry="4.40614" transform="matrix(-0.911695 -0.410869 -0.410869 0.911695 277.093 492.059)" fill="#EAEAEB" fill-opacity="0.3"/>
<ellipse cx="67.6268" cy="374.15" rx="1.92214" ry="2.75384" transform="rotate(24.2594 67.6268 374.15)" fill="#EAEAEB" fill-opacity="0.3"/>
<ellipse cx="38.1241" cy="360.553" rx="0.96155" ry="1.37692" transform="rotate(24.2594 38.1241 360.553)" fill="#EAEAEB" fill-opacity="0.3"/>
<ellipse cx="213.077" cy="439.7" rx="3.84427" ry="5.50767" transform="rotate(24.2594 213.077 439.7)" fill="#EAEAEB" fill-opacity="0.3"/>
<ellipse cx="155.185" cy="413.309" rx="3.26763" ry="4.68152" transform="rotate(24.2594 155.185 413.309)" fill="#EAEAEB" fill-opacity="0.3"/>
<ellipse cx="52.9086" cy="367.518" rx="1.53771" ry="2.20307" transform="rotate(24.2594 52.9086 367.518)" fill="#EAEAEB" fill-opacity="0.3"/>
<ellipse cx="184.276" cy="426.419" rx="3.65206" ry="5.23229" transform="rotate(24.2594 184.276 426.419)" fill="#EAEAEB" fill-opacity="0.3"/>
<ellipse cx="169.618" cy="420.112" rx="3.45984" ry="4.95691" transform="rotate(24.2594 169.618 420.112)" fill="#EAEAEB" fill-opacity="0.3"/>
<ellipse cx="198.706" cy="433.223" rx="3.84427" ry="5.50767" transform="rotate(24.2594 198.706 433.223)" fill="#EAEAEB" fill-opacity="0.3"/>
<ellipse cx="126.093" cy="400.199" rx="2.8832" ry="4.13076" transform="rotate(24.2594 126.093 400.199)" fill="#EAEAEB" fill-opacity="0.3"/>
<ellipse cx="82.3467" cy="380.783" rx="2.30656" ry="3.3046" transform="rotate(24.2594 82.3467 380.783)" fill="#EAEAEB" fill-opacity="0.3"/>
<ellipse cx="111.436" cy="393.896" rx="2.69099" ry="3.85537" transform="rotate(24.2594 111.436 393.896)" fill="#EAEAEB" fill-opacity="0.3"/>
<ellipse cx="97.0035" cy="387.089" rx="2.49878" ry="3.57999" transform="rotate(24.2594 97.0035 387.089)" fill="#EAEAEB" fill-opacity="0.3"/>
<ellipse cx="140.526" cy="407.006" rx="3.07542" ry="4.40614" transform="rotate(24.2594 140.526 407.006)" fill="#EAEAEB" fill-opacity="0.3"/>
<ellipse cx="1.92214" cy="2.75384" rx="1.92214" ry="2.75384" transform="matrix(-0.911695 -0.410869 -0.410869 0.911695 375.431 509.847)" fill="#EAEAEB" fill-opacity="0.3"/>
<ellipse cx="0.96155" cy="1.37692" rx="0.96155" ry="1.37692" transform="matrix(-0.911695 -0.410869 -0.410869 0.911695 403.716 523.802)" fill="#EAEAEB" fill-opacity="0.3"/>
<ellipse cx="3.84427" cy="5.50767" rx="3.84427" ry="5.50767" transform="matrix(-0.911695 -0.410869 -0.410869 0.911695 232.862 442.575)" fill="#EAEAEB" fill-opacity="0.3"/>
<ellipse cx="3.26763" cy="4.68152" rx="3.26763" ry="4.68152" transform="matrix(-0.911695 -0.410869 -0.410869 0.911695 290.118 468.982)" fill="#EAEAEB" fill-opacity="0.3"/>
<ellipse cx="1.53771" cy="2.20307" rx="1.53771" ry="2.20307" transform="matrix(-0.911695 -0.410869 -0.410869 0.911695 389.573 516.824)" fill="#EAEAEB" fill-opacity="0.3"/>
<ellipse cx="3.65206" cy="5.23229" rx="3.65206" ry="5.23229" transform="matrix(-0.911695 -0.410869 -0.410869 0.911695 261.605 455.526)" fill="#EAEAEB" fill-opacity="0.3"/>
<ellipse cx="3.45984" cy="4.95691" rx="3.45984" ry="4.95691" transform="matrix(-0.911695 -0.410869 -0.410869 0.911695 275.747 462.505)" fill="#EAEAEB" fill-opacity="0.3"/>
<ellipse cx="3.84427" cy="5.50767" rx="3.84427" ry="5.50767" transform="matrix(-0.911695 -0.410869 -0.410869 0.911695 247.236 449.052)" fill="#EAEAEB" fill-opacity="0.3"/>
<ellipse cx="2.8832" cy="4.13076" rx="2.8832" ry="4.13076" transform="matrix(-0.911695 -0.410869 -0.410869 0.911695 318.631 482.438)" fill="#EAEAEB" fill-opacity="0.3"/>
<ellipse cx="2.30656" cy="3.3046" rx="2.30656" ry="3.3046" transform="matrix(-0.911695 -0.410869 -0.410869 0.911695 361.288 502.868)" fill="#EAEAEB" fill-opacity="0.3"/>
<ellipse cx="2.69099" cy="3.85537" rx="2.69099" ry="3.85537" transform="matrix(-0.911695 -0.410869 -0.410869 0.911695 332.774 489.416)" fill="#EAEAEB" fill-opacity="0.3"/>
<ellipse cx="2.49878" cy="3.57999" rx="2.49878" ry="3.57999" transform="matrix(-0.911695 -0.410869 -0.410869 0.911695 347.142 495.892)" fill="#EAEAEB" fill-opacity="0.3"/>
<ellipse cx="3.07542" cy="4.40614" rx="3.07542" ry="4.40614" transform="matrix(-0.911695 -0.410869 -0.410869 0.911695 304.26 475.963)" fill="#EAEAEB" fill-opacity="0.3"/>
<ellipse cx="50.2815" cy="309.663" rx="2.39493" ry="2.75384" transform="rotate(24.2594 50.2815 309.663)" fill="#EAEAEB" fill-opacity="0.3"/>
<ellipse cx="13.4974" cy="292.782" rx="1.19747" ry="1.37692" transform="rotate(24.2594 13.4974 292.782)" fill="#EAEAEB" fill-opacity="0.3"/>
<ellipse cx="231.506" cy="391.334" rx="4.78986" ry="5.50767" transform="rotate(24.2594 231.506 391.334)" fill="#EAEAEB" fill-opacity="0.3"/>
<ellipse cx="159.347" cy="358.512" rx="4.07138" ry="4.68152" transform="rotate(24.2594 159.347 358.512)" fill="#EAEAEB" fill-opacity="0.3"/>
<ellipse cx="31.9409" cy="301.394" rx="1.91594" ry="2.20307" transform="rotate(24.2594 31.9409 301.394)" fill="#EAEAEB" fill-opacity="0.3"/>
<ellipse cx="195.595" cy="374.849" rx="4.55037" ry="5.23229" transform="rotate(24.2594 195.595 374.849)" fill="#EAEAEB" fill-opacity="0.3"/>
<ellipse cx="177.358" cy="366.931" rx="4.31087" ry="4.95691" transform="rotate(24.2594 177.358 366.931)" fill="#EAEAEB" fill-opacity="0.3"/>
<ellipse cx="213.602" cy="383.265" rx="4.78986" ry="5.50767" transform="rotate(24.2594 213.602 383.265)" fill="#EAEAEB" fill-opacity="0.3"/>
<ellipse cx="123.104" cy="342.179" rx="3.5924" ry="4.13076" transform="rotate(24.2594 123.104 342.179)" fill="#EAEAEB" fill-opacity="0.3"/>
<ellipse cx="68.623" cy="317.925" rx="2.87392" ry="3.3046" transform="rotate(24.2594 68.623 317.925)" fill="#5F68EB"/>
<ellipse cx="104.868" cy="334.261" rx="3.3529" ry="3.85537" transform="rotate(24.2594 104.868 334.261)" fill="#EAEAEB" fill-opacity="0.3"/>
<ellipse cx="86.8593" cy="325.844" rx="3.11341" ry="3.57999" transform="rotate(24.2594 86.8593 325.844)" fill="#EAEAEB" fill-opacity="0.3"/>
<ellipse cx="141.115" cy="350.595" rx="3.83189" ry="4.40614" transform="rotate(24.2594 141.115 350.595)" fill="#EAEAEB" fill-opacity="0.3"/>
<ellipse cx="2.39493" cy="2.75384" rx="2.39493" ry="2.75384" transform="matrix(-0.911695 -0.410869 -0.410869 0.911695 433.513 479.351)" fill="#EAEAEB" fill-opacity="0.3"/>
<ellipse cx="1.19747" cy="1.37692" rx="1.19747" ry="1.37692" transform="matrix(-0.911695 -0.410869 -0.410869 0.911695 468.87 496.495)" fill="#EAEAEB" fill-opacity="0.3"/>
<ellipse cx="4.78986" cy="5.50767" rx="4.78986" ry="5.50767" transform="matrix(-0.911695 -0.410869 -0.410869 0.911695 255.603 396.155)" fill="#EAEAEB" fill-opacity="0.3"/>
<ellipse cx="4.07138" cy="4.68152" rx="4.07138" ry="4.68152" transform="matrix(-0.911695 -0.410869 -0.410869 0.911695 326.995 428.931)" fill="#EAEAEB" fill-opacity="0.3"/>
<ellipse cx="1.91594" cy="2.20307" rx="1.91594" ry="2.20307" transform="matrix(-0.911695 -0.410869 -0.410869 0.911695 451.191 487.923)" fill="#EAEAEB" fill-opacity="0.3"/>
<ellipse cx="4.55037" cy="5.23229" rx="4.55037" ry="5.23229" transform="matrix(-0.911695 -0.410869 -0.410869 0.911695 291.411 412.291)" fill="#EAEAEB" fill-opacity="0.3"/>
<ellipse cx="4.31087" cy="4.95691" rx="4.31087" ry="4.95691" transform="matrix(-0.911695 -0.410869 -0.410869 0.911695 309.09 420.861)" fill="#EAEAEB" fill-opacity="0.3"/>
<ellipse cx="4.78986" cy="5.50767" rx="4.78986" ry="5.50767" transform="matrix(-0.911695 -0.410869 -0.410869 0.911695 273.507 404.223)" fill="#EAEAEB" fill-opacity="0.3"/>
<ellipse cx="3.5924" cy="4.13076" rx="3.5924" ry="4.13076" transform="matrix(-0.911695 -0.410869 -0.410869 0.911695 362.577 445.57)" fill="#EAEAEB" fill-opacity="0.3"/>
<ellipse cx="2.87392" cy="3.3046" rx="2.87392" ry="3.3046" transform="matrix(-0.911695 -0.410869 -0.410869 0.911695 415.835 470.78)" fill="#EAEAEB" fill-opacity="0.3"/>
<ellipse cx="3.3529" cy="3.85537" rx="3.3529" ry="3.85537" transform="matrix(-0.911695 -0.410869 -0.410869 0.911695 380.254 454.141)" fill="#EAEAEB" fill-opacity="0.3"/>
<ellipse cx="3.11341" cy="3.57999" rx="3.11341" ry="3.57999" transform="matrix(-0.911695 -0.410869 -0.410869 0.911695 398.158 462.21)" fill="#EAEAEB" fill-opacity="0.3"/>
<ellipse cx="3.83189" cy="4.40614" rx="3.83189" ry="4.40614" transform="matrix(-0.911695 -0.410869 -0.410869 0.911695 344.672 437.502)" fill="#EAEAEB" fill-opacity="0.3"/>
<ellipse cx="50.0929" cy="281.236" rx="2.55816" ry="2.75384" transform="rotate(24.2594 50.0929 281.236)" fill="#EAEAEB" fill-opacity="0.3"/>
<ellipse cx="10.7908" cy="263.222" rx="1.27908" ry="1.37692" transform="rotate(24.2594 10.7908 263.222)" fill="#EAEAEB" fill-opacity="0.3"/>
<ellipse cx="243.67" cy="368.476" rx="5.11631" ry="5.50767" transform="rotate(24.2594 243.67 368.476)" fill="#EAEAEB" fill-opacity="0.3"/>
<ellipse cx="166.585" cy="333.433" rx="4.34887" ry="4.68152" transform="rotate(24.2594 166.585 333.433)" fill="#EAEAEB" fill-opacity="0.3"/>
<ellipse cx="30.5019" cy="272.409" rx="2.04653" ry="2.20307" transform="rotate(24.2594 30.5019 272.409)" fill="#EAEAEB" fill-opacity="0.3"/>
<ellipse cx="205.302" cy="350.882" rx="4.8605" ry="5.23229" transform="rotate(24.2594 205.302 350.882)" fill="#EAEAEB" fill-opacity="0.3"/>
<ellipse cx="185.829" cy="342.408" rx="4.60468" ry="4.95691" transform="rotate(24.2594 185.829 342.408)" fill="#EAEAEB" fill-opacity="0.3"/>
<ellipse cx="224.545" cy="359.855" rx="5.11631" ry="5.50767" transform="rotate(24.2594 224.545 359.855)" fill="#EAEAEB" fill-opacity="0.3"/>
<ellipse cx="127.87" cy="315.986" rx="3.83724" ry="4.13076" transform="rotate(24.2594 127.87 315.986)" fill="#EAEAEB" fill-opacity="0.3"/>
<ellipse cx="69.6841" cy="290.066" rx="3.06979" ry="3.3046" transform="rotate(24.2594 69.6841 290.066)" fill="#EAEAEB" fill-opacity="0.3"/>
<ellipse cx="108.401" cy="307.513" rx="3.58142" ry="3.85537" transform="rotate(24.2594 108.401 307.513)" fill="#EAEAEB" fill-opacity="0.3"/>
<ellipse cx="89.157" cy="298.54" rx="3.3256" ry="3.57999" transform="rotate(24.2594 89.157 298.54)" fill="#EAEAEB" fill-opacity="0.3"/>
<ellipse cx="147.116" cy="324.962" rx="4.09305" ry="4.40614" transform="rotate(24.2594 147.116 324.962)" fill="#EAEAEB" fill-opacity="0.3"/>
<ellipse cx="2.55816" cy="2.75384" rx="2.55816" ry="2.75384" transform="matrix(-0.911695 -0.410869 -0.410869 0.911695 459.369 462.665)" fill="#EAEAEB" fill-opacity="0.3"/>
<ellipse cx="1.27908" cy="1.37692" rx="1.27908" ry="1.37692" transform="matrix(-0.911695 -0.410869 -0.410869 0.911695 497.167 480.906)" fill="#EAEAEB" fill-opacity="0.3"/>
<ellipse cx="5.11631" cy="5.50767" rx="5.11631" ry="5.50767" transform="matrix(-0.911695 -0.410869 -0.410869 0.911695 269.255 373.964)" fill="#EAEAEB" fill-opacity="0.3"/>
<ellipse cx="4.34887" cy="4.68152" rx="4.34887" ry="4.68152" transform="matrix(-0.911695 -0.410869 -0.410869 0.911695 345.528 408.942)" fill="#EAEAEB" fill-opacity="0.3"/>
<ellipse cx="2.04653" cy="2.20307" rx="2.04653" ry="2.20307" transform="matrix(-0.911695 -0.410869 -0.410869 0.911695 478.266 471.783)" fill="#EAEAEB" fill-opacity="0.3"/>
<ellipse cx="4.8605" cy="5.23229" rx="4.8605" ry="5.23229" transform="matrix(-0.911695 -0.410869 -0.410869 0.911695 307.504 391.201)" fill="#EAEAEB" fill-opacity="0.3"/>
<ellipse cx="4.60468" cy="4.95691" rx="4.60468" ry="4.95691" transform="matrix(-0.911695 -0.410869 -0.410869 0.911695 326.405 400.323)" fill="#EAEAEB" fill-opacity="0.3"/>
<ellipse cx="5.11631" cy="5.50767" rx="5.11631" ry="5.50767" transform="matrix(-0.911695 -0.410869 -0.410869 0.911695 288.381 382.583)" fill="#EAEAEB" fill-opacity="0.3"/>
<ellipse cx="3.83724" cy="4.13076" rx="3.83724" ry="4.13076" transform="matrix(-0.911695 -0.410869 -0.410869 0.911695 383.549 426.683)" fill="#EAEAEB" fill-opacity="0.3"/>
<ellipse cx="3.06979" cy="3.3046" rx="3.06979" ry="3.3046" transform="matrix(-0.911695 -0.410869 -0.410869 0.911695 440.472 453.544)" fill="#EAEAEB" fill-opacity="0.3"/>
<ellipse cx="3.58142" cy="3.85537" rx="3.58142" ry="3.85537" transform="matrix(-0.911695 -0.410869 -0.410869 0.911695 402.445 435.803)" fill="#EAEAEB" fill-opacity="0.3"/>
<ellipse cx="3.3256" cy="3.57999" rx="3.3256" ry="3.57999" transform="matrix(-0.911695 -0.410869 -0.410869 0.911695 421.574 444.42)" fill="#EAEAEB" fill-opacity="0.3"/>
<ellipse cx="4.09305" cy="4.40614" rx="4.09305" ry="4.40614" transform="matrix(-0.911695 -0.410869 -0.410869 0.911695 364.424 418.065)" fill="#EAEAEB" fill-opacity="0.3"/>
<ellipse cx="61.3166" cy="201.277" rx="2.81159" ry="2.75384" transform="rotate(24.2594 61.3166 201.277)" fill="#EAEAEB" fill-opacity="0.3"/>
<ellipse cx="18.1085" cy="181.503" rx="1.4058" ry="1.37692" transform="rotate(24.2594 18.1085 181.503)" fill="#EAEAEB" fill-opacity="0.3"/>
<ellipse cx="274.072" cy="297.158" rx="5.62318" ry="5.50767" transform="rotate(24.2594 274.072 297.158)" fill="#EAEAEB" fill-opacity="0.3"/>
<ellipse cx="189.341" cy="258.67" rx="4.7797" ry="4.68152" transform="rotate(24.2594 189.341 258.67)" fill="#EAEAEB" fill-opacity="0.3"/>
<ellipse cx="39.7846" cy="191.576" rx="2.24927" ry="2.20307" transform="rotate(24.2594 39.7846 191.576)" fill="#EAEAEB" fill-opacity="0.3"/>
<ellipse cx="231.89" cy="277.847" rx="5.34202" ry="5.23229" transform="rotate(24.2594 231.89 277.847)" fill="#EAEAEB" fill-opacity="0.3"/>
<ellipse cx="210.5" cy="268.508" rx="5.06086" ry="4.95691" transform="rotate(24.2594 210.5 268.508)" fill="#EAEAEB" fill-opacity="0.3"/>
<ellipse cx="253.052" cy="287.686" rx="5.62318" ry="5.50767" transform="rotate(24.2594 253.052 287.686)" fill="#EAEAEB" fill-opacity="0.3"/>
<ellipse cx="146.787" cy="239.498" rx="4.21739" ry="4.13076" transform="rotate(24.2594 146.787 239.498)" fill="#EAEAEB" fill-opacity="0.3"/>
<ellipse cx="82.8486" cy="210.979" rx="3.37391" ry="3.3046" transform="rotate(24.2594 82.8486 210.979)" fill="#EAEAEB" fill-opacity="0.3"/>
<ellipse cx="125.4" cy="230.159" rx="3.93623" ry="3.85537" transform="rotate(24.2594 125.4 230.159)" fill="#EAEAEB" fill-opacity="0.3"/>
<ellipse cx="104.236" cy="220.319" rx="3.65507" ry="3.57999" transform="rotate(24.2594 104.236 220.319)" fill="#EAEAEB" fill-opacity="0.3"/>
<ellipse cx="167.951" cy="249.333" rx="4.49855" ry="4.40614" transform="rotate(24.2594 167.951 249.333)" fill="#EAEAEB" fill-opacity="0.3"/>
<ellipse cx="2.81159" cy="2.75384" rx="2.81159" ry="2.75384" transform="matrix(-0.911695 -0.410869 -0.410869 0.911695 511.029 400.927)" fill="#EAEAEB" fill-opacity="0.3"/>
<ellipse cx="1.4058" cy="1.37692" rx="1.4058" ry="1.37692" transform="matrix(-0.911695 -0.410869 -0.410869 0.911695 552.614 420.877)" fill="#EAEAEB" fill-opacity="0.3"/>
<ellipse cx="5.62318" cy="5.50767" rx="5.62318" ry="5.50767" transform="matrix(-0.911695 -0.410869 -0.410869 0.911695 301.971 303.692)" fill="#EAEAEB" fill-opacity="0.3"/>
<ellipse cx="4.7797" cy="4.68152" rx="4.7797" ry="4.68152" transform="matrix(-0.911695 -0.410869 -0.410869 0.911695 385.819 342.081)" fill="#EAEAEB" fill-opacity="0.3"/>
<ellipse cx="2.24927" cy="2.20307" rx="2.24927" ry="2.20307" transform="matrix(-0.911695 -0.410869 -0.410869 0.911695 531.82 410.901)" fill="#EAEAEB" fill-opacity="0.3"/>
<ellipse cx="5.34202" cy="5.23229" rx="5.34202" ry="5.23229" transform="matrix(-0.911695 -0.410869 -0.410869 0.911695 344.006 322.638)" fill="#EAEAEB" fill-opacity="0.3"/>
<ellipse cx="5.06086" cy="4.95691" rx="5.06086" ry="4.95691" transform="matrix(-0.911695 -0.410869 -0.410869 0.911695 364.799 332.61)" fill="#EAEAEB" fill-opacity="0.3"/>
<ellipse cx="5.62318" cy="5.50767" rx="5.62318" ry="5.50767" transform="matrix(-0.911695 -0.410869 -0.410869 0.911695 322.989 313.165)" fill="#EAEAEB" fill-opacity="0.3"/>
<ellipse cx="4.21739" cy="4.13076" rx="4.21739" ry="4.13076" transform="matrix(-0.911695 -0.410869 -0.410869 0.911695 427.631 361.529)" fill="#EAEAEB" fill-opacity="0.3"/>
<ellipse cx="3.37391" cy="3.3046" rx="3.37391" ry="3.3046" transform="matrix(-0.911695 -0.410869 -0.410869 0.911695 490.237 390.952)" fill="#EAEAEB" fill-opacity="0.3"/>
<ellipse cx="3.93623" cy="3.85537" rx="3.93623" ry="3.85537" transform="matrix(-0.911695 -0.410869 -0.410869 0.911695 448.424 371.505)" fill="#EAEAEB" fill-opacity="0.3"/>
<ellipse cx="3.65507" cy="3.57999" rx="3.65507" ry="3.57999" transform="matrix(-0.911695 -0.410869 -0.410869 0.911695 469.442 380.977)" fill="#EAEAEB" fill-opacity="0.3"/>
<ellipse cx="4.49855" cy="4.40614" rx="4.49855" ry="4.40614" transform="matrix(-0.911695 -0.410869 -0.410869 0.911695 406.614 352.058)" fill="#EAEAEB" fill-opacity="0.3"/>
<ellipse cx="51.7771" cy="253.653" rx="2.67073" ry="2.75384" transform="rotate(24.2594 51.7771 253.653)" fill="#EAEAEB" fill-opacity="0.3"/>
<ellipse cx="10.742" cy="234.858" rx="1.33536" ry="1.37692" transform="rotate(24.2594 10.742 234.858)" fill="#EAEAEB" fill-opacity="0.3"/>
<ellipse cx="253.875" cy="344.731" rx="5.34145" ry="5.50767" transform="rotate(24.2594 253.875 344.731)" fill="#EAEAEB" fill-opacity="0.3"/>
<ellipse cx="173.394" cy="308.16" rx="4.54024" ry="4.68152" transform="rotate(24.2594 173.394 308.16)" fill="#EAEAEB" fill-opacity="0.3"/>
<ellipse cx="31.3228" cy="244.435" rx="2.13658" ry="2.20307" transform="rotate(24.2594 31.3228 244.435)" fill="#EAEAEB" fill-opacity="0.3"/>
<ellipse cx="213.811" cy="326.375" rx="5.07438" ry="5.23229" transform="rotate(24.2594 213.811 326.375)" fill="#EAEAEB" fill-opacity="0.3"/>
<ellipse cx="193.487" cy="317.517" rx="4.80731" ry="4.95691" transform="rotate(24.2594 193.487 317.517)" fill="#EAEAEB" fill-opacity="0.3"/>
<ellipse cx="233.908" cy="335.734" rx="5.34145" ry="5.50767" transform="rotate(24.2594 233.908 335.734)" fill="#EAEAEB" fill-opacity="0.3"/>
<ellipse cx="132.971" cy="289.942" rx="4.00609" ry="4.13076" transform="rotate(24.2594 132.971 289.942)" fill="#EAEAEB" fill-opacity="0.3"/>
<ellipse cx="72.2331" cy="262.872" rx="3.20487" ry="3.3046" transform="rotate(24.2594 72.2331 262.872)" fill="#EAEAEB" fill-opacity="0.3"/>
<ellipse cx="112.649" cy="281.088" rx="3.73902" ry="3.85537" transform="rotate(24.2594 112.649 281.088)" fill="#EAEAEB" fill-opacity="0.3"/>
<ellipse cx="92.5531" cy="271.729" rx="3.47195" ry="3.57999" transform="rotate(24.2594 92.5531 271.729)" fill="#EAEAEB" fill-opacity="0.3"/>
<ellipse cx="153.069" cy="299.302" rx="4.27316" ry="4.40614" transform="rotate(24.2594 153.069 299.302)" fill="#EAEAEB" fill-opacity="0.3"/>
<ellipse cx="2.67073" cy="2.75384" rx="2.67073" ry="2.75384" transform="matrix(-0.911695 -0.410869 -0.410869 0.911695 479.011 443.174)" fill="#EAEAEB" fill-opacity="0.3"/>
<ellipse cx="1.33536" cy="1.37692" rx="1.33536" ry="1.37692" transform="matrix(-0.911695 -0.410869 -0.410869 0.911695 518.491 462.177)" fill="#EAEAEB" fill-opacity="0.3"/>
<ellipse cx="5.34145" cy="5.50767" rx="5.34145" ry="5.50767" transform="matrix(-0.911695 -0.410869 -0.410869 0.911695 280.484 350.684)" fill="#EAEAEB" fill-opacity="0.3"/>
<ellipse cx="4.54024" cy="4.68152" rx="4.54024" ry="4.68152" transform="matrix(-0.911695 -0.410869 -0.410869 0.911695 360.12 387.178)" fill="#EAEAEB" fill-opacity="0.3"/>
<ellipse cx="2.13658" cy="2.20307" rx="2.13658" ry="2.20307" transform="matrix(-0.911695 -0.410869 -0.410869 0.911695 498.753 452.675)" fill="#EAEAEB" fill-opacity="0.3"/>
<ellipse cx="5.07438" cy="5.23229" rx="5.07438" ry="5.23229" transform="matrix(-0.911695 -0.410869 -0.410869 0.911695 320.417 368.68)" fill="#EAEAEB" fill-opacity="0.3"/>
<ellipse cx="4.80731" cy="4.95691" rx="4.80731" ry="4.95691" transform="matrix(-0.911695 -0.410869 -0.410869 0.911695 340.156 378.181)" fill="#EAEAEB" fill-opacity="0.3"/>
<ellipse cx="5.34145" cy="5.50767" rx="5.34145" ry="5.50767" transform="matrix(-0.911695 -0.410869 -0.410869 0.911695 300.452 359.684)" fill="#EAEAEB" fill-opacity="0.3"/>
<ellipse cx="4.00609" cy="4.13076" rx="4.00609" ry="4.13076" transform="matrix(-0.911695 -0.410869 -0.410869 0.911695 399.83 405.677)" fill="#EAEAEB" fill-opacity="0.3"/>
<ellipse cx="3.20487" cy="3.3046" rx="3.20487" ry="3.3046" transform="matrix(-0.911695 -0.410869 -0.410869 0.911695 459.273 433.676)" fill="#EAEAEB" fill-opacity="0.3"/>
<ellipse cx="3.73902" cy="3.85537" rx="3.73902" ry="3.85537" transform="matrix(-0.911695 -0.410869 -0.410869 0.911695 419.567 415.179)" fill="#EAEAEB" fill-opacity="0.3"/>
<ellipse cx="3.47195" cy="3.57999" rx="3.47195" ry="3.57999" transform="matrix(-0.911695 -0.410869 -0.410869 0.911695 439.532 424.176)" fill="#EAEAEB" fill-opacity="0.3"/>
<ellipse cx="4.27316" cy="4.40614" rx="4.27316" ry="4.40614" transform="matrix(-0.911695 -0.410869 -0.410869 0.911695 379.861 396.68)" fill="#EAEAEB" fill-opacity="0.3"/>
<ellipse cx="71.4818" cy="177.521" rx="2.81707" ry="2.75384" transform="rotate(24.2594 71.4818 177.521)" fill="#EAEAEB" fill-opacity="0.3"/>
<ellipse cx="28.1908" cy="157.711" rx="1.40853" ry="1.37692" transform="rotate(24.2594 28.1908 157.711)" fill="#EAEAEB" fill-opacity="0.3"/>
<ellipse cx="284.653" cy="273.592" rx="5.63414" ry="5.50767" transform="rotate(24.2594 284.653 273.592)" fill="#EAEAEB" fill-opacity="0.3"/>
<ellipse cx="199.756" cy="235.027" rx="4.78902" ry="4.68152" transform="rotate(24.2594 199.756 235.027)" fill="#EAEAEB" fill-opacity="0.3"/>
<ellipse cx="49.9102" cy="167.801" rx="2.25366" ry="2.20307" transform="rotate(24.2594 49.9102 167.801)" fill="#EAEAEB" fill-opacity="0.3"/>
<ellipse cx="242.387" cy="254.241" rx="5.35243" ry="5.23229" transform="rotate(24.2594 242.387 254.241)" fill="#EAEAEB" fill-opacity="0.3"/>
<ellipse cx="220.957" cy="244.887" rx="5.07072" ry="4.95691" transform="rotate(24.2594 220.957 244.887)" fill="#EAEAEB" fill-opacity="0.3"/>
<ellipse cx="263.591" cy="264.099" rx="5.63414" ry="5.50767" transform="rotate(24.2594 263.591 264.099)" fill="#EAEAEB" fill-opacity="0.3"/>
<ellipse cx="157.12" cy="215.813" rx="4.2256" ry="4.13076" transform="rotate(24.2594 157.12 215.813)" fill="#EAEAEB" fill-opacity="0.3"/>
<ellipse cx="93.0565" cy="187.245" rx="3.38048" ry="3.3046" transform="rotate(24.2594 93.0565 187.245)" fill="#EAEAEB" fill-opacity="0.3"/>
<ellipse cx="135.69" cy="206.458" rx="3.9439" ry="3.85537" transform="rotate(24.2594 135.69 206.458)" fill="#EAEAEB" fill-opacity="0.3"/>
<ellipse cx="114.487" cy="196.6" rx="3.66219" ry="3.57999" transform="rotate(24.2594 114.487 196.6)" fill="#EAEAEB" fill-opacity="0.3"/>
<ellipse cx="178.324" cy="225.671" rx="4.50731" ry="4.40614" transform="rotate(24.2594 178.324 225.671)" fill="#EAEAEB" fill-opacity="0.3"/>
<ellipse cx="2.81707" cy="2.75384" rx="2.81707" ry="2.75384" transform="matrix(-0.911695 -0.410869 -0.410869 0.911695 522.068 377.561)" fill="#EAEAEB" fill-opacity="0.3"/>
<ellipse cx="1.40853" cy="1.37692" rx="1.40853" ry="1.37692" transform="matrix(-0.911695 -0.410869 -0.410869 0.911695 563.737 397.548)" fill="#EAEAEB" fill-opacity="0.3"/>
<ellipse cx="5.63414" cy="5.50767" rx="5.63414" ry="5.50767" transform="matrix(-0.911695 -0.410869 -0.410869 0.911695 312.6 280.141)" fill="#EAEAEB" fill-opacity="0.3"/>
<ellipse cx="4.78902" cy="4.68152" rx="4.78902" ry="4.68152" transform="matrix(-0.911695 -0.410869 -0.410869 0.911695 396.614 318.604)" fill="#EAEAEB" fill-opacity="0.3"/>
<ellipse cx="2.25366" cy="2.20307" rx="2.25366" ry="2.20307" transform="matrix(-0.911695 -0.410869 -0.410869 0.911695 542.903 387.555)" fill="#EAEAEB" fill-opacity="0.3"/>
<ellipse cx="5.35243" cy="5.23229" rx="5.35243" ry="5.23229" transform="matrix(-0.911695 -0.410869 -0.410869 0.911695 354.721 299.125)" fill="#EAEAEB" fill-opacity="0.3"/>
<ellipse cx="5.07072" cy="4.95691" rx="5.07072" ry="4.95691" transform="matrix(-0.911695 -0.410869 -0.410869 0.911695 375.556 309.117)" fill="#EAEAEB" fill-opacity="0.3"/>
<ellipse cx="5.63414" cy="5.50767" rx="5.63414" ry="5.50767" transform="matrix(-0.911695 -0.410869 -0.410869 0.911695 333.658 289.632)" fill="#EAEAEB" fill-opacity="0.3"/>
<ellipse cx="4.2256" cy="4.13076" rx="4.2256" ry="4.13076" transform="matrix(-0.911695 -0.410869 -0.410869 0.911695 438.507 338.09)" fill="#EAEAEB" fill-opacity="0.3"/>
<ellipse cx="3.38048" cy="3.3046" rx="3.38048" ry="3.3046" transform="matrix(-0.911695 -0.410869 -0.410869 0.911695 501.233 367.569)" fill="#EAEAEB" fill-opacity="0.3"/>
<ellipse cx="3.9439" cy="3.85537" rx="3.9439" ry="3.85537" transform="matrix(-0.911695 -0.410869 -0.410869 0.911695 459.339 348.086)" fill="#EAEAEB" fill-opacity="0.3"/>
<ellipse cx="3.66219" cy="3.57999" rx="3.66219" ry="3.57999" transform="matrix(-0.911695 -0.410869 -0.410869 0.911695 480.403 357.578)" fill="#EAEAEB" fill-opacity="0.3"/>
<ellipse cx="4.50731" cy="4.40614" rx="4.50731" ry="4.40614" transform="matrix(-0.911695 -0.410869 -0.410869 0.911695 417.447 328.601)" fill="#EAEAEB" fill-opacity="0.3"/>
<ellipse cx="2.76078" cy="2.75384" rx="2.76078" ry="2.75384" transform="matrix(0.911695 0.410869 0.410869 -0.911695 104.677 110.486)" fill="#EAEAEB" fill-opacity="0.3"/>
<ellipse cx="1.38039" cy="1.37692" rx="1.38039" ry="1.37692" transform="matrix(0.911695 0.410869 0.410869 -0.911695 63.8513 90.8795)" fill="#EAEAEB" fill-opacity="0.3"/>
<ellipse cx="5.52157" cy="5.50767" rx="5.52157" ry="5.50767" transform="matrix(0.911695 0.410869 0.410869 -0.911695 309.938 206.014)" fill="#EAEAEB" fill-opacity="0.3"/>
<ellipse cx="4.69333" cy="4.68152" rx="4.69333" ry="4.68152" transform="matrix(0.911695 0.410869 0.410869 -0.911695 227.607 168.306)" fill="#EAEAEB" fill-opacity="0.3"/>
<ellipse cx="2.20863" cy="2.20307" rx="2.20863" ry="2.20307" transform="matrix(0.911695 0.410869 0.410869 -0.911695 84.2632 100.684)" fill="#EAEAEB" fill-opacity="0.3"/>
<ellipse cx="5.24549" cy="5.23229" rx="5.24549" ry="5.23229" transform="matrix(0.911695 0.410869 0.410869 -0.911695 268.66 187.409)" fill="#EAEAEB" fill-opacity="0.3"/>
<ellipse cx="4.96941" cy="4.95691" rx="4.96941" ry="4.95691" transform="matrix(0.911695 0.410869 0.410869 -0.911695 248.248 177.606)" fill="#EAEAEB" fill-opacity="0.3"/>
<ellipse cx="5.52157" cy="5.50767" rx="5.52157" ry="5.50767" transform="matrix(0.911695 0.410869 0.410869 -0.911695 289.299 196.709)" fill="#EAEAEB" fill-opacity="0.3"/>
<ellipse cx="4.14118" cy="4.13076" rx="4.14118" ry="4.13076" transform="matrix(0.911695 0.410869 0.410869 -0.911695 186.555 149.197)" fill="#EAEAEB" fill-opacity="0.3"/>
<ellipse cx="3.31294" cy="3.3046" rx="3.31294" ry="3.3046" transform="matrix(0.911695 0.410869 0.410869 -0.911695 125.087 120.289)" fill="#EAEAEB" fill-opacity="0.3"/>
<ellipse cx="3.8651" cy="3.85537" rx="3.8651" ry="3.85537" transform="matrix(0.911695 0.410869 0.410869 -0.911695 166.145 139.396)" fill="#EAEAEB" fill-opacity="0.3"/>
<ellipse cx="3.58902" cy="3.57999" rx="3.58902" ry="3.57999" transform="matrix(0.911695 0.410869 0.410869 -0.911695 145.503 130.094)" fill="#EAEAEB" fill-opacity="0.3"/>
<ellipse cx="4.41725" cy="4.40614" rx="4.41725" ry="4.40614" transform="matrix(0.911695 0.410869 0.410869 -0.911695 207.193 158.5)" fill="#EAEAEB" fill-opacity="0.3"/>
<ellipse cx="546.288" cy="306.486" rx="2.76078" ry="2.75384" transform="rotate(-155.741 546.288 306.486)" fill="#EAEAEB" fill-opacity="0.3"/>
<ellipse cx="588.709" cy="325.908" rx="1.38039" ry="1.37692" transform="rotate(-155.741 588.709 325.908)" fill="#EAEAEB" fill-opacity="0.3"/>
<ellipse cx="337.374" cy="212.336" rx="5.52157" ry="5.50767" transform="rotate(-155.741 337.374 212.336)" fill="#EAEAEB" fill-opacity="0.3"/>
<ellipse cx="420.574" cy="250.133" rx="4.69333" ry="4.68152" transform="rotate(-155.741 420.574 250.133)" fill="#EAEAEB" fill-opacity="0.3"/>
<ellipse cx="567.427" cy="316.012" rx="2.20863" ry="2.20307" transform="rotate(-155.741 567.427 316.012)" fill="#EAEAEB" fill-opacity="0.3"/>
<ellipse cx="378.792" cy="231.305" rx="5.24549" ry="5.23229" transform="rotate(-155.741 378.792 231.305)" fill="#EAEAEB" fill-opacity="0.3"/>
<ellipse cx="399.798" cy="240.467" rx="4.96941" ry="4.95691" transform="rotate(-155.741 399.798 240.467)" fill="#EAEAEB" fill-opacity="0.3"/>
<ellipse cx="358.014" cy="221.636" rx="5.52157" ry="5.50767" transform="rotate(-155.741 358.014 221.636)" fill="#EAEAEB" fill-opacity="0.3"/>
<ellipse cx="462.356" cy="268.961" rx="4.14118" ry="4.13076" transform="rotate(-155.741 462.356 268.961)" fill="#EAEAEB" fill-opacity="0.3"/>
<ellipse cx="525.143" cy="296.956" rx="3.31294" ry="3.3046" transform="rotate(-155.741 525.143 296.956)" fill="#EAEAEB" fill-opacity="0.3"/>
<ellipse cx="483.358" cy="278.127" rx="3.8651" ry="3.85537" transform="rotate(-155.741 483.358 278.127)" fill="#EAEAEB" fill-opacity="0.3"/>
<ellipse cx="504.137" cy="287.793" rx="3.58902" ry="3.57999" transform="rotate(-155.741 504.137 287.793)" fill="#EAEAEB" fill-opacity="0.3"/>
<ellipse cx="441.577" cy="259.299" rx="4.41725" ry="4.40614" transform="rotate(-155.741 441.577 259.299)" fill="#EAEAEB" fill-opacity="0.3"/>
<ellipse cx="2.19512" cy="2.75384" rx="2.19512" ry="2.75384" transform="matrix(0.911695 0.410869 0.410869 -0.911695 191.184 36.1178)" fill="#EAEAEB" fill-opacity="0.3"/>
<ellipse cx="1.09756" cy="1.37692" rx="1.09756" ry="1.37692" transform="matrix(0.911695 0.410869 0.410869 -0.911695 158.815 20.3219)" fill="#EAEAEB" fill-opacity="0.3"/>
<ellipse cx="4.39024" cy="5.50767" rx="4.39024" ry="5.50767" transform="matrix(0.911695 0.410869 0.410869 -0.911695 354.157 112.585)" fill="#EAEAEB" fill-opacity="0.3"/>
<ellipse cx="3.7317" cy="4.68152" rx="3.7317" ry="4.68152" transform="matrix(0.911695 0.410869 0.410869 -0.911695 288.742 82.5018)" fill="#EAEAEB" fill-opacity="0.3"/>
<ellipse cx="1.75609" cy="2.20307" rx="1.75609" ry="2.20307" transform="matrix(0.911695 0.410869 0.410869 -0.911695 175.001 28.2198)" fill="#EAEAEB" fill-opacity="0.3"/>
<ellipse cx="4.17072" cy="5.23229" rx="4.17072" ry="5.23229" transform="matrix(0.911695 0.410869 0.410869 -0.911695 321.336 97.7938)" fill="#EAEAEB" fill-opacity="0.3"/>
<ellipse cx="3.95121" cy="4.95691" rx="3.95121" ry="4.95691" transform="matrix(0.911695 0.410869 0.410869 -0.911695 305.152 89.8979)" fill="#EAEAEB" fill-opacity="0.3"/>
<ellipse cx="4.39024" cy="5.50767" rx="4.39024" ry="5.50767" transform="matrix(0.911695 0.410869 0.410869 -0.911695 337.747 105.189)" fill="#EAEAEB" fill-opacity="0.3"/>
<ellipse cx="3.29268" cy="4.13076" rx="3.29268" ry="4.13076" transform="matrix(0.911695 0.410869 0.410869 -0.911695 256.146 67.2097)" fill="#EAEAEB" fill-opacity="0.3"/>
<ellipse cx="2.63414" cy="3.3046" rx="2.63414" ry="3.3046" transform="matrix(0.911695 0.410869 0.410869 -0.911695 207.369 44.0167)" fill="#EAEAEB" fill-opacity="0.3"/>
<ellipse cx="3.07317" cy="3.85537" rx="3.07317" ry="3.85537" transform="matrix(0.911695 0.410869 0.410869 -0.911695 239.963 59.3108)" fill="#EAEAEB" fill-opacity="0.3"/>
<ellipse cx="2.85365" cy="3.57999" rx="2.85365" ry="3.57999" transform="matrix(0.911695 0.410869 0.410869 -0.911695 223.551 51.9136)" fill="#EAEAEB" fill-opacity="0.3"/>
<ellipse cx="3.51219" cy="4.40614" rx="3.51219" ry="4.40614" transform="matrix(0.911695 0.410869 0.410869 -0.911695 272.558 74.6028)" fill="#EAEAEB" fill-opacity="0.3"/>
<ellipse cx="542.538" cy="191.442" rx="2.19512" ry="2.75384" transform="rotate(-155.741 542.538 191.442)" fill="#EAEAEB" fill-opacity="0.3"/>
<ellipse cx="576.247" cy="206.934" rx="1.09756" ry="1.37692" transform="rotate(-155.741 576.247 206.934)" fill="#EAEAEB" fill-opacity="0.3"/>
<ellipse cx="376.432" cy="116.583" rx="4.39024" ry="5.50767" transform="rotate(-155.741 376.432 116.583)" fill="#EAEAEB" fill-opacity="0.3"/>
<ellipse cx="442.56" cy="146.688" rx="3.7317" ry="4.68152" transform="rotate(-155.741 442.56 146.688)" fill="#EAEAEB" fill-opacity="0.3"/>
<ellipse cx="559.349" cy="199.017" rx="1.75609" ry="2.20307" transform="rotate(-155.741 559.349 199.017)" fill="#EAEAEB" fill-opacity="0.3"/>
<ellipse cx="409.339" cy="131.715" rx="4.17072" ry="5.23229" transform="rotate(-155.741 409.339 131.715)" fill="#EAEAEB" fill-opacity="0.3"/>
<ellipse cx="426.063" cy="138.952" rx="3.95121" ry="4.95691" transform="rotate(-155.741 426.063 138.952)" fill="#EAEAEB" fill-opacity="0.3"/>
<ellipse cx="392.842" cy="123.978" rx="4.39024" ry="5.50767" transform="rotate(-155.741 392.842 123.978)" fill="#EAEAEB" fill-opacity="0.3"/>
<ellipse cx="475.78" cy="161.66" rx="3.29268" ry="4.13076" transform="rotate(-155.741 475.78 161.66)" fill="#EAEAEB" fill-opacity="0.3"/>
<ellipse cx="525.726" cy="183.865" rx="2.63414" ry="3.3046" transform="rotate(-155.741 525.726 183.865)" fill="#EAEAEB" fill-opacity="0.3"/>
<ellipse cx="492.505" cy="168.894" rx="3.07317" ry="3.85537" transform="rotate(-155.741 492.505 168.894)" fill="#EAEAEB" fill-opacity="0.3"/>
<ellipse cx="509.002" cy="176.63" rx="2.85365" ry="3.57999" transform="rotate(-155.741 509.002 176.63)" fill="#EAEAEB" fill-opacity="0.3"/>
<ellipse cx="459.284" cy="153.922" rx="3.51219" ry="4.40614" transform="rotate(-155.741 459.284 153.922)" fill="#EAEAEB" fill-opacity="0.3"/>
<ellipse cx="1.19639" cy="2.75384" rx="1.19639" ry="2.75384" transform="matrix(0.911695 0.410869 0.410869 -0.911695 322.807 10.2487)" fill="#EAEAEB" fill-opacity="0.3"/>
<ellipse cx="0.598496" cy="1.37692" rx="0.598496" ry="1.37692" transform="matrix(0.911695 0.410869 0.410869 -0.911695 305.37 1.18506)" fill="#EAEAEB" fill-opacity="0.3"/>
<ellipse cx="2.03387" cy="4.68152" rx="2.03387" ry="4.68152" transform="matrix(0.911695 0.410869 0.410869 -0.911695 375.566 36.439)" fill="#EAEAEB" fill-opacity="0.3"/>
<ellipse cx="0.957593" cy="2.20307" rx="0.957593" ry="2.20307" transform="matrix(0.911695 0.410869 0.410869 -0.911695 314.087 5.71631)" fill="#EAEAEB" fill-opacity="0.3"/>
<ellipse cx="2.1535" cy="4.95691" rx="2.1535" ry="4.95691" transform="matrix(0.911695 0.410869 0.410869 -0.911695 384.51 40.4736)" fill="#EAEAEB" fill-opacity="0.3"/>
<ellipse cx="1.79459" cy="4.13076" rx="1.79459" ry="4.13076" transform="matrix(0.911695 0.410869 0.410869 -0.911695 357.902 27.8793)" fill="#EAEAEB" fill-opacity="0.3"/>
<ellipse cx="1.43567" cy="3.3046" rx="1.43567" ry="3.3046" transform="matrix(0.911695 0.410869 0.410869 -0.911695 331.524 14.782)" fill="#EAEAEB" fill-opacity="0.3"/>
<ellipse cx="1.67495" cy="3.85537" rx="1.67495" ry="3.85537" transform="matrix(0.911695 0.410869 0.410869 -0.911695 349.186 23.3469)" fill="#EAEAEB" fill-opacity="0.3"/>
<ellipse cx="1.55531" cy="3.57999" rx="1.55531" ry="3.57999" transform="matrix(0.911695 0.410869 0.410869 -0.911695 340.24 19.3153)" fill="#EAEAEB" fill-opacity="0.3"/>
<ellipse cx="1.91423" cy="4.40614" rx="1.91423" ry="4.40614" transform="matrix(0.911695 0.410869 0.410869 -0.911695 366.845 31.9119)" fill="#EAEAEB" fill-opacity="0.3"/>
<ellipse cx="462.995" cy="69.8659" rx="1.19639" ry="2.75384" transform="rotate(-155.741 462.995 69.8659)" fill="#EAEAEB" fill-opacity="0.3"/>
<ellipse cx="481.314" cy="78.4246" rx="0.598496" ry="1.37692" transform="rotate(-155.741 481.314 78.4246)" fill="#EAEAEB" fill-opacity="0.3"/>
<ellipse cx="408.451" cy="45.584" rx="2.03387" ry="4.68152" transform="rotate(-155.741 408.451 45.584)" fill="#EAEAEB" fill-opacity="0.3"/>
<ellipse cx="472.155" cy="73.994" rx="0.957593" ry="2.20307" transform="rotate(-155.741 472.155 73.994)" fill="#EAEAEB" fill-opacity="0.3"/>
<ellipse cx="399.511" cy="41.2553" rx="2.1535" ry="4.95691" transform="rotate(-155.741 399.511 41.2553)" fill="#EAEAEB" fill-opacity="0.3"/>
<ellipse cx="426.557" cy="53.7479" rx="1.79459" ry="4.13076" transform="rotate(-155.741 426.557 53.7479)" fill="#EAEAEB" fill-opacity="0.3"/>
<ellipse cx="453.83" cy="65.7367" rx="1.43567" ry="3.3046" transform="rotate(-155.741 453.83 65.7367)" fill="#EAEAEB" fill-opacity="0.3"/>
<ellipse cx="435.726" cy="57.5729" rx="1.67495" ry="3.85537" transform="rotate(-155.741 435.726 57.5729)" fill="#EAEAEB" fill-opacity="0.3"/>
<ellipse cx="444.665" cy="61.9046" rx="1.55531" ry="3.57999" transform="rotate(-155.741 444.665 61.9046)" fill="#EAEAEB" fill-opacity="0.3"/>
<ellipse cx="417.616" cy="49.4172" rx="1.91423" ry="4.40614" transform="rotate(-155.741 417.616 49.4172)" fill="#EAEAEB" fill-opacity="0.3"/>
<ellipse cx="1.54221" cy="2.75384" rx="1.54221" ry="2.75384" transform="matrix(0.911695 0.410869 0.410869 -0.911695 263.189 11.8958)" fill="#EAEAEB" fill-opacity="0.3"/>
<ellipse cx="0.771492" cy="1.37692" rx="0.771492" ry="1.37692" transform="matrix(0.911695 0.410869 0.410869 -0.911695 240.583 0.499756)" fill="#EAEAEB" fill-opacity="0.3"/>
<ellipse cx="3.08442" cy="5.50767" rx="3.08442" ry="5.50767" transform="matrix(0.911695 0.410869 0.410869 -0.911695 377.353 66.3652)" fill="#EAEAEB" fill-opacity="0.3"/>
<ellipse cx="2.62176" cy="4.68152" rx="2.62176" ry="4.68152" transform="matrix(0.911695 0.410869 0.410869 -0.911695 331.462 45.0804)" fill="#EAEAEB" fill-opacity="0.3"/>
<ellipse cx="1.23377" cy="2.20307" rx="1.23377" ry="2.20307" transform="matrix(0.911695 0.410869 0.410869 -0.911695 251.886 6.19629)" fill="#EAEAEB" fill-opacity="0.3"/>
<ellipse cx="2.9302" cy="5.23229" rx="2.9302" ry="5.23229" transform="matrix(0.911695 0.410869 0.410869 -0.911695 354.292 55.9707)" fill="#EAEAEB" fill-opacity="0.3"/>
<ellipse cx="2.77598" cy="4.95691" rx="2.77598" ry="4.95691" transform="matrix(0.911695 0.410869 0.410869 -0.911695 342.991 50.2753)" fill="#EAEAEB" fill-opacity="0.3"/>
<ellipse cx="3.08442" cy="5.50767" rx="3.08442" ry="5.50767" transform="matrix(0.911695 0.410869 0.410869 -0.911695 365.824 61.1696)" fill="#EAEAEB" fill-opacity="0.3"/>
<ellipse cx="2.31332" cy="4.13076" rx="2.31332" ry="4.13076" transform="matrix(0.911695 0.410869 0.410869 -0.911695 308.629 34.1831)" fill="#EAEAEB" fill-opacity="0.3"/>
<ellipse cx="1.85065" cy="3.3046" rx="1.85065" ry="3.3046" transform="matrix(0.911695 0.410869 0.410869 -0.911695 274.493 17.5944)" fill="#EAEAEB" fill-opacity="0.3"/>
<ellipse cx="2.1591" cy="3.85537" rx="2.1591" ry="3.85537" transform="matrix(0.911695 0.410869 0.410869 -0.911695 297.327 28.4866)" fill="#EAEAEB" fill-opacity="0.3"/>
<ellipse cx="2.00487" cy="3.57999" rx="2.00487" ry="3.57999" transform="matrix(0.911695 0.410869 0.410869 -0.911695 285.795 23.2919)" fill="#EAEAEB" fill-opacity="0.3"/>
<ellipse cx="2.46754" cy="4.40614" rx="2.46754" ry="4.40614" transform="matrix(0.911695 0.410869 0.410869 -0.911695 320.157 39.3799)" fill="#EAEAEB" fill-opacity="0.3"/>
<ellipse cx="510.376" cy="120.277" rx="1.54221" ry="2.75384" transform="rotate(-155.741 510.376 120.277)" fill="#EAEAEB" fill-opacity="0.3"/>
<ellipse cx="534.023" cy="131.234" rx="0.771492" ry="1.37692" transform="rotate(-155.741 534.023 131.234)" fill="#EAEAEB" fill-opacity="0.3"/>
<ellipse cx="393.677" cy="67.6817" rx="3.08442" ry="5.50767" transform="rotate(-155.741 393.677 67.6817)" fill="#EAEAEB" fill-opacity="0.3"/>
<ellipse cx="440.101" cy="88.9074" rx="2.62176" ry="4.68152" transform="rotate(-155.741 440.101 88.9074)" fill="#EAEAEB" fill-opacity="0.3"/>
<ellipse cx="522.187" cy="125.597" rx="1.23377" ry="2.20307" transform="rotate(-155.741 522.187 125.597)" fill="#EAEAEB" fill-opacity="0.3"/>
<ellipse cx="416.761" cy="78.3887" rx="2.9302" ry="5.23229" transform="rotate(-155.741 416.761 78.3887)" fill="#EAEAEB" fill-opacity="0.3"/>
<ellipse cx="428.545" cy="83.3971" rx="2.77598" ry="4.95691" transform="rotate(-155.741 428.545 83.3971)" fill="#EAEAEB" fill-opacity="0.3"/>
<ellipse cx="405.203" cy="72.8766" rx="3.08442" ry="5.50767" transform="rotate(-155.741 405.203 72.8766)" fill="#EAEAEB" fill-opacity="0.3"/>
<ellipse cx="463.441" cy="99.426" rx="2.31332" ry="4.13076" transform="rotate(-155.741 463.441 99.426)" fill="#EAEAEB" fill-opacity="0.3"/>
<ellipse cx="498.564" cy="114.95" rx="1.85065" ry="3.3046" transform="rotate(-155.741 498.564 114.95)" fill="#EAEAEB" fill-opacity="0.3"/>
<ellipse cx="475.226" cy="104.433" rx="2.1591" ry="3.85537" transform="rotate(-155.741 475.226 104.433)" fill="#EAEAEB" fill-opacity="0.3"/>
<ellipse cx="486.781" cy="109.945" rx="2.00487" ry="3.57999" transform="rotate(-155.741 486.781 109.945)" fill="#EAEAEB" fill-opacity="0.3"/>
<ellipse cx="451.884" cy="93.9148" rx="2.46754" ry="4.40614" transform="rotate(-155.741 451.884 93.9148)" fill="#EAEAEB" fill-opacity="0.3"/>
<ellipse cx="1.92214" cy="2.75384" rx="1.92214" ry="2.75384" transform="matrix(0.911695 0.410869 0.410869 -0.911695 222.361 21.8367)" fill="#EAEAEB" fill-opacity="0.3"/>
<ellipse cx="0.96155" cy="1.37692" rx="0.96155" ry="1.37692" transform="matrix(0.911695 0.410869 0.410869 -0.911695 194.073 7.88)" fill="#EAEAEB" fill-opacity="0.3"/>
<ellipse cx="3.84427" cy="5.50767" rx="3.84427" ry="5.50767" transform="matrix(0.911695 0.410869 0.410869 -0.911695 364.928 89.1035)" fill="#EAEAEB" fill-opacity="0.3"/>
<ellipse cx="3.26763" cy="4.68152" rx="3.26763" ry="4.68152" transform="matrix(0.911695 0.410869 0.410869 -0.911695 307.676 62.6982)" fill="#EAEAEB" fill-opacity="0.3"/>
<ellipse cx="1.53771" cy="2.20307" rx="1.53771" ry="2.20307" transform="matrix(0.911695 0.410869 0.410869 -0.911695 208.219 14.8599)" fill="#EAEAEB" fill-opacity="0.3"/>
<ellipse cx="3.65206" cy="5.23229" rx="3.65206" ry="5.23229" transform="matrix(0.911695 0.410869 0.410869 -0.911695 336.188 76.1543)" fill="#EAEAEB" fill-opacity="0.3"/>
<ellipse cx="3.45984" cy="4.95691" rx="3.45984" ry="4.95691" transform="matrix(0.911695 0.410869 0.410869 -0.911695 322.041 69.1754)" fill="#EAEAEB" fill-opacity="0.3"/>
<ellipse cx="3.84427" cy="5.50767" rx="3.84427" ry="5.50767" transform="matrix(0.911695 0.410869 0.410869 -0.911695 350.556 82.6294)" fill="#EAEAEB" fill-opacity="0.3"/>
<ellipse cx="2.8832" cy="4.13076" rx="2.8832" ry="4.13076" transform="matrix(0.911695 0.410869 0.410869 -0.911695 279.161 49.2454)" fill="#EAEAEB" fill-opacity="0.3"/>
<ellipse cx="2.30656" cy="3.3046" rx="2.30656" ry="3.3046" transform="matrix(0.911695 0.410869 0.410869 -0.911695 236.503 28.8136)" fill="#EAEAEB" fill-opacity="0.3"/>
<ellipse cx="2.69099" cy="3.85537" rx="2.69099" ry="3.85537" transform="matrix(0.911695 0.410869 0.410869 -0.911695 265.017 42.2686)" fill="#EAEAEB" fill-opacity="0.3"/>
<ellipse cx="2.49878" cy="3.57999" rx="2.49878" ry="3.57999" transform="matrix(0.911695 0.410869 0.410869 -0.911695 250.649 35.7893)" fill="#EAEAEB" fill-opacity="0.3"/>
<ellipse cx="3.07542" cy="4.40614" rx="3.07542" ry="4.40614" transform="matrix(0.911695 0.410869 0.410869 -0.911695 293.53 55.7225)" fill="#EAEAEB" fill-opacity="0.3"/>
<ellipse cx="530.165" cy="157.531" rx="1.92214" ry="2.75384" transform="rotate(-155.741 530.165 157.531)" fill="#EAEAEB" fill-opacity="0.3"/>
<ellipse cx="559.663" cy="171.127" rx="0.96155" ry="1.37692" transform="rotate(-155.741 559.663 171.127)" fill="#EAEAEB" fill-opacity="0.3"/>
<ellipse cx="384.714" cy="91.9795" rx="3.84427" ry="5.50767" transform="rotate(-155.741 384.714 91.9795)" fill="#EAEAEB" fill-opacity="0.3"/>
<ellipse cx="442.604" cy="118.374" rx="3.26763" ry="4.68152" transform="rotate(-155.741 442.604 118.374)" fill="#EAEAEB" fill-opacity="0.3"/>
<ellipse cx="544.883" cy="164.164" rx="1.53771" ry="2.20307" transform="rotate(-155.741 544.883 164.164)" fill="#EAEAEB" fill-opacity="0.3"/>
<ellipse cx="413.517" cy="105.263" rx="3.65206" ry="5.23229" transform="rotate(-155.741 413.517 105.263)" fill="#EAEAEB" fill-opacity="0.3"/>
<ellipse cx="428.173" cy="111.566" rx="3.45984" ry="4.95691" transform="rotate(-155.741 428.173 111.566)" fill="#EAEAEB" fill-opacity="0.3"/>
<ellipse cx="399.083" cy="98.4577" rx="3.84427" ry="5.50767" transform="rotate(-155.741 399.083 98.4577)" fill="#EAEAEB" fill-opacity="0.3"/>
<ellipse cx="471.696" cy="131.484" rx="2.8832" ry="4.13076" transform="rotate(-155.741 471.696 131.484)" fill="#EAEAEB" fill-opacity="0.3"/>
<ellipse cx="515.443" cy="150.895" rx="2.30656" ry="3.3046" transform="rotate(-155.741 515.443 150.895)" fill="#EAEAEB" fill-opacity="0.3"/>
<ellipse cx="486.353" cy="137.786" rx="2.69099" ry="3.85537" transform="rotate(-155.741 486.353 137.786)" fill="#EAEAEB" fill-opacity="0.3"/>
<ellipse cx="500.787" cy="144.591" rx="2.49878" ry="3.57999" transform="rotate(-155.741 500.787 144.591)" fill="#EAEAEB" fill-opacity="0.3"/>
<ellipse cx="457.264" cy="124.676" rx="3.07542" ry="4.40614" transform="rotate(-155.741 457.264 124.676)" fill="#EAEAEB" fill-opacity="0.3"/>
<ellipse cx="2.39493" cy="2.75384" rx="2.39493" ry="2.75384" transform="matrix(0.911695 0.410869 0.410869 -0.911695 162.125 51.365)" fill="#EAEAEB" fill-opacity="0.3"/>
<ellipse cx="1.19747" cy="1.37692" rx="1.19747" ry="1.37692" transform="matrix(0.911695 0.410869 0.410869 -0.911695 126.769 34.2203)" fill="#EAEAEB" fill-opacity="0.3"/>
<ellipse cx="4.78986" cy="5.50767" rx="4.78986" ry="5.50767" transform="matrix(0.911695 0.410869 0.410869 -0.911695 340.034 134.561)" fill="#EAEAEB" fill-opacity="0.3"/>
<ellipse cx="4.07138" cy="4.68152" rx="4.07138" ry="4.68152" transform="matrix(0.911695 0.410869 0.410869 -0.911695 268.644 101.783)" fill="#EAEAEB" fill-opacity="0.3"/>
<ellipse cx="1.91594" cy="2.20307" rx="1.91594" ry="2.20307" transform="matrix(0.911695 0.410869 0.410869 -0.911695 144.447 42.7921)" fill="#EAEAEB" fill-opacity="0.3"/>
<ellipse cx="4.55037" cy="5.23229" rx="4.55037" ry="5.23229" transform="matrix(0.911695 0.410869 0.410869 -0.911695 304.226 118.423)" fill="#EAEAEB" fill-opacity="0.3"/>
<ellipse cx="4.31087" cy="4.95691" rx="4.31087" ry="4.95691" transform="matrix(0.911695 0.410869 0.410869 -0.911695 286.548 109.853)" fill="#EAEAEB" fill-opacity="0.3"/>
<ellipse cx="4.78986" cy="5.50767" rx="4.78986" ry="5.50767" transform="matrix(0.911695 0.410869 0.410869 -0.911695 322.13 126.492)" fill="#EAEAEB" fill-opacity="0.3"/>
<ellipse cx="3.5924" cy="4.13076" rx="3.5924" ry="4.13076" transform="matrix(0.911695 0.410869 0.410869 -0.911695 233.061 85.1466)" fill="#EAEAEB" fill-opacity="0.3"/>
<ellipse cx="2.87392" cy="3.3046" rx="2.87392" ry="3.3046" transform="matrix(0.911695 0.410869 0.410869 -0.911695 179.802 59.9348)" fill="#EAEAEB" fill-opacity="0.3"/>
<ellipse cx="3.3529" cy="3.85537" rx="3.3529" ry="3.85537" transform="matrix(0.911695 0.410869 0.410869 -0.911695 215.382 76.5728)" fill="#EAEAEB" fill-opacity="0.3"/>
<ellipse cx="3.11341" cy="3.57999" rx="3.11341" ry="3.57999" transform="matrix(0.911695 0.410869 0.410869 -0.911695 197.477 68.5027)" fill="#EAEAEB" fill-opacity="0.3"/>
<ellipse cx="3.83189" cy="4.40614" rx="3.83189" ry="4.40614" transform="matrix(0.911695 0.410869 0.410869 -0.911695 250.967 93.2136)" fill="#EAEAEB" fill-opacity="0.3"/>
<ellipse cx="545.356" cy="221.051" rx="2.39493" ry="2.75384" transform="rotate(-155.741 545.356 221.051)" fill="#EAEAEB" fill-opacity="0.3"/>
<ellipse cx="582.141" cy="237.933" rx="1.19747" ry="1.37692" transform="rotate(-155.741 582.141 237.933)" fill="#EAEAEB" fill-opacity="0.3"/>
<ellipse cx="364.133" cy="139.382" rx="4.78986" ry="5.50767" transform="rotate(-155.741 364.133 139.382)" fill="#EAEAEB" fill-opacity="0.3"/>
<ellipse cx="436.288" cy="172.203" rx="4.07138" ry="4.68152" transform="rotate(-155.741 436.288 172.203)" fill="#EAEAEB" fill-opacity="0.3"/>
<ellipse cx="563.696" cy="229.319" rx="1.91594" ry="2.20307" transform="rotate(-155.741 563.696 229.319)" fill="#EAEAEB" fill-opacity="0.3"/>
<ellipse cx="400.043" cy="155.868" rx="4.55037" ry="5.23229" transform="rotate(-155.741 400.043 155.868)" fill="#EAEAEB" fill-opacity="0.3"/>
<ellipse cx="418.281" cy="163.783" rx="4.31087" ry="4.95691" transform="rotate(-155.741 418.281 163.783)" fill="#EAEAEB" fill-opacity="0.3"/>
<ellipse cx="382.037" cy="147.45" rx="4.78986" ry="5.50767" transform="rotate(-155.741 382.037 147.45)" fill="#EAEAEB" fill-opacity="0.3"/>
<ellipse cx="472.534" cy="188.536" rx="3.5924" ry="4.13076" transform="rotate(-155.741 472.534 188.536)" fill="#EAEAEB" fill-opacity="0.3"/>
<ellipse cx="527.015" cy="212.785" rx="2.87392" ry="3.3046" transform="rotate(-155.741 527.015 212.785)" fill="#EAEAEB" fill-opacity="0.3"/>
<ellipse cx="490.771" cy="196.452" rx="3.3529" ry="3.85537" transform="rotate(-155.741 490.771 196.452)" fill="#EAEAEB" fill-opacity="0.3"/>
<ellipse cx="508.78" cy="204.87" rx="3.11341" ry="3.57999" transform="rotate(-155.741 508.78 204.87)" fill="#EAEAEB" fill-opacity="0.3"/>
<ellipse cx="454.526" cy="180.118" rx="3.83189" ry="4.40614" transform="rotate(-155.741 454.526 180.118)" fill="#EAEAEB" fill-opacity="0.3"/>
<ellipse cx="2.55816" cy="2.75384" rx="2.55816" ry="2.75384" transform="matrix(0.911695 0.410869 0.410869 -0.911695 140.555 69.9841)" fill="#EAEAEB" fill-opacity="0.3"/>
<ellipse cx="1.27908" cy="1.37692" rx="1.27908" ry="1.37692" transform="matrix(0.911695 0.410869 0.410869 -0.911695 102.758 51.7418)" fill="#EAEAEB" fill-opacity="0.3"/>
<ellipse cx="5.11631" cy="5.50767" rx="5.11631" ry="5.50767" transform="matrix(0.911695 0.410869 0.410869 -0.911695 330.668 158.682)" fill="#EAEAEB" fill-opacity="0.3"/>
<ellipse cx="4.34887" cy="4.68152" rx="4.34887" ry="4.68152" transform="matrix(0.911695 0.410869 0.410869 -0.911695 254.395 123.707)" fill="#EAEAEB" fill-opacity="0.3"/>
<ellipse cx="2.04653" cy="2.20307" rx="2.04653" ry="2.20307" transform="matrix(0.911695 0.410869 0.410869 -0.911695 121.656 60.8655)" fill="#EAEAEB" fill-opacity="0.3"/>
<ellipse cx="4.8605" cy="5.23229" rx="4.8605" ry="5.23229" transform="matrix(0.911695 0.410869 0.410869 -0.911695 292.419 141.445)" fill="#EAEAEB" fill-opacity="0.3"/>
<ellipse cx="4.60468" cy="4.95691" rx="4.60468" ry="4.95691" transform="matrix(0.911695 0.410869 0.410869 -0.911695 273.522 132.324)" fill="#00D1FF"/>
<ellipse cx="5.11631" cy="5.50767" rx="5.11631" ry="5.50767" transform="matrix(0.911695 0.410869 0.410869 -0.911695 311.543 150.065)" fill="#EAEAEB" fill-opacity="0.3"/>
<ellipse cx="3.83724" cy="4.13076" rx="3.83724" ry="4.13076" transform="matrix(0.911695 0.410869 0.410869 -0.911695 216.373 105.967)" fill="#EAEAEB" fill-opacity="0.3"/>
<ellipse cx="3.06979" cy="3.3046" rx="3.06979" ry="3.3046" transform="matrix(0.911695 0.410869 0.410869 -0.911695 159.452 79.1079)" fill="#EAEAEB" fill-opacity="0.3"/>
<ellipse cx="3.58142" cy="3.85537" rx="3.58142" ry="3.85537" transform="matrix(0.911695 0.410869 0.410869 -0.911695 197.476 96.8464)" fill="#EAEAEB" fill-opacity="0.3"/>
<ellipse cx="3.3256" cy="3.57999" rx="3.3256" ry="3.57999" transform="matrix(0.911695 0.410869 0.410869 -0.911695 178.35 88.2275)" fill="#EAEAEB" fill-opacity="0.3"/>
<ellipse cx="4.09305" cy="4.40614" rx="4.09305" ry="4.40614" transform="matrix(0.911695 0.410869 0.410869 -0.911695 235.499 114.586)" fill="#EAEAEB" fill-opacity="0.3"/>
<ellipse cx="549.832" cy="251.411" rx="2.55816" ry="2.75384" transform="rotate(-155.741 549.832 251.411)" fill="#EAEAEB" fill-opacity="0.3"/>
<ellipse cx="589.135" cy="269.425" rx="1.27908" ry="1.37692" transform="rotate(-155.741 589.135 269.425)" fill="#EAEAEB" fill-opacity="0.3"/>
<ellipse cx="356.255" cy="164.171" rx="5.11631" ry="5.50767" transform="rotate(-155.741 356.255 164.171)" fill="#EAEAEB" fill-opacity="0.3"/>
<ellipse cx="433.342" cy="199.213" rx="4.34887" ry="4.68152" transform="rotate(-155.741 433.342 199.213)" fill="#EAEAEB" fill-opacity="0.3"/>
<ellipse cx="569.426" cy="260.239" rx="2.04653" ry="2.20307" transform="rotate(-155.741 569.426 260.239)" fill="#EAEAEB" fill-opacity="0.3"/>
<ellipse cx="394.626" cy="181.764" rx="4.8605" ry="5.23229" transform="rotate(-155.741 394.626 181.764)" fill="#EAEAEB" fill-opacity="0.3"/>
<ellipse cx="414.097" cy="190.238" rx="4.60468" ry="4.95691" transform="rotate(-155.741 414.097 190.238)" fill="#EAEAEB" fill-opacity="0.3"/>
<ellipse cx="375.381" cy="172.789" rx="5.11631" ry="5.50767" transform="rotate(-155.741 375.381 172.789)" fill="#EAEAEB" fill-opacity="0.3"/>
<ellipse cx="472.057" cy="216.661" rx="3.83724" ry="4.13076" transform="rotate(-155.741 472.057 216.661)" fill="#EAEAEB" fill-opacity="0.3"/>
<ellipse cx="530.243" cy="242.579" rx="3.06979" ry="3.3046" transform="rotate(-155.741 530.243 242.579)" fill="#EAEAEB" fill-opacity="0.3"/>
<ellipse cx="491.525" cy="225.133" rx="3.58142" ry="3.85537" transform="rotate(-155.741 491.525 225.133)" fill="#EAEAEB" fill-opacity="0.3"/>
<ellipse cx="510.771" cy="234.11" rx="3.3256" ry="3.57999" transform="rotate(-155.741 510.771 234.11)" fill="#EAEAEB" fill-opacity="0.3"/>
<ellipse cx="452.811" cy="207.684" rx="4.09305" ry="4.40614" transform="rotate(-155.741 452.811 207.684)" fill="#EAEAEB" fill-opacity="0.3"/>
<ellipse cx="2.81159" cy="2.75384" rx="2.81159" ry="2.75384" transform="matrix(0.911695 0.410869 0.410869 -0.911695 87.8574 131.246)" fill="#EAEAEB" fill-opacity="0.3"/>
<ellipse cx="1.4058" cy="1.37692" rx="1.4058" ry="1.37692" transform="matrix(0.911695 0.410869 0.410869 -0.911695 46.2712 111.297)" fill="#EAEAEB" fill-opacity="0.3"/>
<ellipse cx="5.62318" cy="5.50767" rx="5.62318" ry="5.50767" transform="matrix(0.911695 0.410869 0.410869 -0.911695 296.92 228.482)" fill="#EAEAEB" fill-opacity="0.3"/>
<ellipse cx="4.7797" cy="4.68152" rx="4.7797" ry="4.68152" transform="matrix(0.911695 0.410869 0.410869 -0.911695 213.066 190.091)" fill="#EAEAEB" fill-opacity="0.3"/>
<ellipse cx="2.24927" cy="2.20307" rx="2.24927" ry="2.20307" transform="matrix(0.911695 0.410869 0.410869 -0.911695 67.0645 121.272)" fill="#EAEAEB" fill-opacity="0.3"/>
<ellipse cx="5.34202" cy="5.23229" rx="5.34202" ry="5.23229" transform="matrix(0.911695 0.410869 0.410869 -0.911695 254.879 209.538)" fill="#EAEAEB" fill-opacity="0.3"/>
<ellipse cx="5.06086" cy="4.95691" rx="5.06086" ry="4.95691" transform="matrix(0.911695 0.410869 0.410869 -0.911695 234.084 199.564)" fill="#EAEAEB" fill-opacity="0.3"/>
<ellipse cx="5.62318" cy="5.50767" rx="5.62318" ry="5.50767" transform="matrix(0.911695 0.410869 0.410869 -0.911695 275.9 219.009)" fill="#EAEAEB" fill-opacity="0.3"/>
<ellipse cx="4.21739" cy="4.13076" rx="4.21739" ry="4.13076" transform="matrix(0.911695 0.410869 0.410869 -0.911695 171.257 170.642)" fill="#EAEAEB" fill-opacity="0.3"/>
<ellipse cx="3.37391" cy="3.3046" rx="3.37391" ry="3.3046" transform="matrix(0.911695 0.410869 0.410869 -0.911695 108.65 141.219)" fill="#EAEAEB" fill-opacity="0.3"/>
<ellipse cx="3.93623" cy="3.85537" rx="3.93623" ry="3.85537" transform="matrix(0.911695 0.410869 0.410869 -0.911695 150.465 160.668)" fill="#EAEAEB" fill-opacity="0.3"/>
<ellipse cx="3.65507" cy="3.57999" rx="3.65507" ry="3.57999" transform="matrix(0.911695 0.410869 0.410869 -0.911695 129.444 151.194)" fill="#EAEAEB" fill-opacity="0.3"/>
<ellipse cx="4.49855" cy="4.40614" rx="4.49855" ry="4.40614" transform="matrix(0.911695 0.410869 0.410869 -0.911695 192.274 180.113)" fill="#EAEAEB" fill-opacity="0.3"/>
<ellipse cx="537.568" cy="330.896" rx="2.81159" ry="2.75384" transform="rotate(-155.741 537.568 330.896)" fill="#EAEAEB" fill-opacity="0.3"/>
<ellipse cx="580.776" cy="350.668" rx="1.4058" ry="1.37692" transform="rotate(-155.741 580.776 350.668)" fill="#EAEAEB" fill-opacity="0.3"/>
<ellipse cx="324.816" cy="235.012" rx="5.62318" ry="5.50767" transform="rotate(-155.741 324.816 235.012)" fill="#EAEAEB" fill-opacity="0.3"/>
<ellipse cx="409.547" cy="273.501" rx="4.7797" ry="4.68152" transform="rotate(-155.741 409.547 273.501)" fill="#EAEAEB" fill-opacity="0.3"/>
<ellipse cx="559.101" cy="340.599" rx="2.24927" ry="2.20307" transform="rotate(-155.741 559.101 340.599)" fill="#EAEAEB" fill-opacity="0.3"/>
<ellipse cx="366.997" cy="254.322" rx="5.34202" ry="5.23229" transform="rotate(-155.741 366.997 254.322)" fill="#EAEAEB" fill-opacity="0.3"/>
<ellipse cx="388.384" cy="263.665" rx="5.06086" ry="4.95691" transform="rotate(-155.741 388.384 263.665)" fill="#EAEAEB" fill-opacity="0.3"/>
<ellipse cx="345.832" cy="244.482" rx="5.62318" ry="5.50767" transform="rotate(-155.741 345.832 244.482)" fill="#EAEAEB" fill-opacity="0.3"/>
<ellipse cx="452.096" cy="292.676" rx="4.21739" ry="4.13076" transform="rotate(-155.741 452.096 292.676)" fill="#EAEAEB" fill-opacity="0.3"/>
<ellipse cx="516.037" cy="321.19" rx="3.37391" ry="3.3046" transform="rotate(-155.741 516.037 321.19)" fill="#EAEAEB" fill-opacity="0.3"/>
<ellipse cx="473.485" cy="302.012" rx="3.93623" ry="3.85537" transform="rotate(-155.741 473.485 302.012)" fill="#EAEAEB" fill-opacity="0.3"/>
<ellipse cx="494.648" cy="311.853" rx="3.65507" ry="3.57999" transform="rotate(-155.741 494.648 311.853)" fill="#EAEAEB" fill-opacity="0.3"/>
<ellipse cx="430.935" cy="282.839" rx="4.49855" ry="4.40614" transform="rotate(-155.741 430.935 282.839)" fill="#EAEAEB" fill-opacity="0.3"/>
<ellipse cx="2.67073" cy="2.75384" rx="2.67073" ry="2.75384" transform="matrix(0.911695 0.410869 0.410869 -0.911695 120.91 89.4679)" fill="#EAEAEB" fill-opacity="0.3"/>
<ellipse cx="1.33536" cy="1.37692" rx="1.33536" ry="1.37692" transform="matrix(0.911695 0.410869 0.410869 -0.911695 81.4314 70.4652)" fill="#EAEAEB" fill-opacity="0.3"/>
<ellipse cx="5.34145" cy="5.50767" rx="5.34145" ry="5.50767" transform="matrix(0.911695 0.410869 0.410869 -0.911695 319.44 181.958)" fill="#EAEAEB" fill-opacity="0.3"/>
<ellipse cx="4.54024" cy="4.68152" rx="4.54024" ry="4.68152" transform="matrix(0.911695 0.410869 0.410869 -0.911695 239.803 145.466)" fill="#EAEAEB" fill-opacity="0.3"/>
<ellipse cx="2.13658" cy="2.20307" rx="2.13658" ry="2.20307" transform="matrix(0.911695 0.410869 0.410869 -0.911695 101.171 79.967)" fill="#EAEAEB" fill-opacity="0.3"/>
<ellipse cx="5.07438" cy="5.23229" rx="5.07438" ry="5.23229" transform="matrix(0.911695 0.410869 0.410869 -0.911695 279.508 163.963)" fill="#EAEAEB" fill-opacity="0.3"/>
<ellipse cx="4.80731" cy="4.95691" rx="4.80731" ry="4.95691" transform="matrix(0.911695 0.410869 0.410869 -0.911695 259.768 154.461)" fill="#EAEAEB" fill-opacity="0.3"/>
<ellipse cx="5.34145" cy="5.50767" rx="5.34145" ry="5.50767" transform="matrix(0.911695 0.410869 0.410869 -0.911695 299.474 172.96)" fill="#EAEAEB" fill-opacity="0.3"/>
<ellipse cx="4.00609" cy="4.13076" rx="4.00609" ry="4.13076" transform="matrix(0.911695 0.410869 0.410869 -0.911695 200.095 126.966)" fill="#EAEAEB" fill-opacity="0.3"/>
<ellipse cx="3.20487" cy="3.3046" rx="3.20487" ry="3.3046" transform="matrix(0.911695 0.410869 0.410869 -0.911695 140.648 98.9678)" fill="#EAEAEB" fill-opacity="0.3"/>
<ellipse cx="3.73902" cy="3.85537" rx="3.73902" ry="3.85537" transform="matrix(0.911695 0.410869 0.410869 -0.911695 180.356 117.466)" fill="#EAEAEB" fill-opacity="0.3"/>
<ellipse cx="3.47195" cy="3.57999" rx="3.47195" ry="3.57999" transform="matrix(0.911695 0.410869 0.410869 -0.911695 160.389 108.468)" fill="#EAEAEB" fill-opacity="0.3"/>
<ellipse cx="4.27316" cy="4.40614" rx="4.27316" ry="4.40614" transform="matrix(0.911695 0.410869 0.410869 -0.911695 220.062 135.964)" fill="#EAEAEB" fill-opacity="0.3"/>
<ellipse cx="548.146" cy="278.987" rx="2.67073" ry="2.75384" transform="rotate(-155.741 548.146 278.987)" fill="#EAEAEB" fill-opacity="0.3"/>
<ellipse cx="589.184" cy="297.781" rx="1.33536" ry="1.37692" transform="rotate(-155.741 589.184 297.781)" fill="#EAEAEB" fill-opacity="0.3"/>
<ellipse cx="346.051" cy="187.909" rx="5.34145" ry="5.50767" transform="rotate(-155.741 346.051 187.909)" fill="#EAEAEB" fill-opacity="0.3"/>
<ellipse cx="426.531" cy="224.48" rx="4.54024" ry="4.68152" transform="rotate(-155.741 426.531 224.48)" fill="#EAEAEB" fill-opacity="0.3"/>
<ellipse cx="568.598" cy="288.204" rx="2.13658" ry="2.20307" transform="rotate(-155.741 568.598 288.204)" fill="#EAEAEB" fill-opacity="0.3"/>
<ellipse cx="386.111" cy="206.267" rx="5.07438" ry="5.23229" transform="rotate(-155.741 386.111 206.267)" fill="#EAEAEB" fill-opacity="0.3"/>
<ellipse cx="406.436" cy="215.121" rx="4.80731" ry="4.95691" transform="rotate(-155.741 406.436 215.121)" fill="#EAEAEB" fill-opacity="0.3"/>
<ellipse cx="366.015" cy="196.908" rx="5.34145" ry="5.50767" transform="rotate(-155.741 366.015 196.908)" fill="#EAEAEB" fill-opacity="0.3"/>
<ellipse cx="466.951" cy="242.695" rx="4.00609" ry="4.13076" transform="rotate(-155.741 466.951 242.695)" fill="#EAEAEB" fill-opacity="0.3"/>
<ellipse cx="527.691" cy="269.77" rx="3.20487" ry="3.3046" transform="rotate(-155.741 527.691 269.77)" fill="#EAEAEB" fill-opacity="0.3"/>
<ellipse cx="487.273" cy="251.553" rx="3.73902" ry="3.85537" transform="rotate(-155.741 487.273 251.553)" fill="#EAEAEB" fill-opacity="0.3"/>
<ellipse cx="507.37" cy="260.912" rx="3.47195" ry="3.57999" transform="rotate(-155.741 507.37 260.912)" fill="#EAEAEB" fill-opacity="0.3"/>
<ellipse cx="446.856" cy="233.338" rx="4.27316" ry="4.40614" transform="rotate(-155.741 446.856 233.338)" fill="#EAEAEB" fill-opacity="0.3"/>
<ellipse cx="2.81707" cy="2.75384" rx="2.81707" ry="2.75384" transform="matrix(0.911695 0.410869 0.410869 -0.911695 76.7866 154.603)" fill="#EAEAEB" fill-opacity="0.3"/>
<ellipse cx="1.40853" cy="1.37692" rx="1.40853" ry="1.37692" transform="matrix(0.911695 0.410869 0.410869 -0.911695 35.1184 134.616)" fill="#EAEAEB" fill-opacity="0.3"/>
<ellipse cx="5.63414" cy="5.50767" rx="5.63414" ry="5.50767" transform="matrix(0.911695 0.410869 0.410869 -0.911695 286.256 252.024)" fill="#EAEAEB" fill-opacity="0.3"/>
<ellipse cx="4.78902" cy="4.68152" rx="4.78902" ry="4.68152" transform="matrix(0.911695 0.410869 0.410869 -0.911695 202.243 213.558)" fill="#EAEAEB" fill-opacity="0.3"/>
<ellipse cx="2.25366" cy="2.20307" rx="2.25366" ry="2.20307" transform="matrix(0.911695 0.410869 0.410869 -0.911695 55.9551 144.609)" fill="#EAEAEB" fill-opacity="0.3"/>
<ellipse cx="5.35243" cy="5.23229" rx="5.35243" ry="5.23229" transform="matrix(0.911695 0.410869 0.410869 -0.911695 244.136 233.04)" fill="#EAEAEB" fill-opacity="0.3"/>
<ellipse cx="5.07072" cy="4.95691" rx="5.07072" ry="4.95691" transform="matrix(0.911695 0.410869 0.410869 -0.911695 223.303 223.047)" fill="#EAEAEB" fill-opacity="0.3"/>
<ellipse cx="5.63414" cy="5.50767" rx="5.63414" ry="5.50767" transform="matrix(0.911695 0.410869 0.410869 -0.911695 265.195 242.533)" fill="#EAEAEB" fill-opacity="0.3"/>
<ellipse cx="4.2256" cy="4.13076" rx="4.2256" ry="4.13076" transform="matrix(0.911695 0.410869 0.410869 -0.911695 160.349 194.07)" fill="#EAEAEB" fill-opacity="0.3"/>
<ellipse cx="3.38048" cy="3.3046" rx="3.38048" ry="3.3046" transform="matrix(0.911695 0.410869 0.410869 -0.911695 97.6204 164.595)" fill="#EAEAEB" fill-opacity="0.3"/>
<ellipse cx="3.9439" cy="3.85537" rx="3.9439" ry="3.85537" transform="matrix(0.911695 0.410869 0.410869 -0.911695 139.513 184.079)" fill="#EAEAEB" fill-opacity="0.3"/>
<ellipse cx="3.66219" cy="3.57999" rx="3.66219" ry="3.57999" transform="matrix(0.911695 0.410869 0.410869 -0.911695 118.453 174.585)" fill="#EAEAEB" fill-opacity="0.3"/>
<ellipse cx="4.50731" cy="4.40614" rx="4.50731" ry="4.40614" transform="matrix(0.911695 0.410869 0.410869 -0.911695 181.408 203.562)" fill="#EAEAEB" fill-opacity="0.3"/>
<ellipse cx="527.371" cy="354.642" rx="2.81707" ry="2.75384" transform="rotate(-155.741 527.371 354.642)" fill="#EAEAEB" fill-opacity="0.3"/>
<ellipse cx="570.661" cy="374.455" rx="1.40853" ry="1.37692" transform="rotate(-155.741 570.661 374.455)" fill="#EAEAEB" fill-opacity="0.3"/>
<ellipse cx="314.201" cy="258.574" rx="5.63414" ry="5.50767" transform="rotate(-155.741 314.201 258.574)" fill="#EAEAEB" fill-opacity="0.3"/>
<ellipse cx="399.097" cy="297.136" rx="4.78902" ry="4.68152" transform="rotate(-155.741 399.097 297.136)" fill="#EAEAEB" fill-opacity="0.3"/>
<ellipse cx="548.944" cy="364.363" rx="2.25366" ry="2.20307" transform="rotate(-155.741 548.944 364.363)" fill="#EAEAEB" fill-opacity="0.3"/>
<ellipse cx="356.466" cy="277.922" rx="5.35243" ry="5.23229" transform="rotate(-155.741 356.466 277.922)" fill="#EAEAEB" fill-opacity="0.3"/>
<ellipse cx="377.895" cy="287.279" rx="5.07072" ry="4.95691" transform="rotate(-155.741 377.895 287.279)" fill="#EAEAEB" fill-opacity="0.3"/>
<ellipse cx="335.26" cy="268.066" rx="5.63414" ry="5.50767" transform="rotate(-155.741 335.26 268.066)" fill="#EAEAEB" fill-opacity="0.3"/>
<ellipse cx="441.732" cy="316.35" rx="4.2256" ry="4.13076" transform="rotate(-155.741 441.732 316.35)" fill="#EAEAEB" fill-opacity="0.3"/>
<ellipse cx="505.796" cy="344.921" rx="3.38048" ry="3.3046" transform="rotate(-155.741 505.796 344.921)" fill="#EAEAEB" fill-opacity="0.3"/>
<ellipse cx="463.16" cy="325.707" rx="3.9439" ry="3.85537" transform="rotate(-155.741 463.16 325.707)" fill="#EAEAEB" fill-opacity="0.3"/>
<ellipse cx="484.366" cy="335.564" rx="3.66219" ry="3.57999" transform="rotate(-155.741 484.366 335.564)" fill="#EAEAEB" fill-opacity="0.3"/>
<ellipse cx="420.527" cy="306.492" rx="4.50731" ry="4.40614" transform="rotate(-155.741 420.527 306.492)" fill="#EAEAEB" fill-opacity="0.3"/>
</g>
<defs>
<clipPath id="clip0_7_2">
<rect width="1380" height="677" fill="white"/>
</clipPath>
</defs>
</svg>
