<svg width="77" height="49" viewBox="0 0 77 49" fill="none" xmlns="http://www.w3.org/2000/svg">
<path d="M9.30674 0.877249C9.21108 0.878063 9.11648 0.898845 9.02836 0.938409C8.94024 0.977973 8.86032 1.03554 8.79316 1.10783C8.726 1.18012 8.67292 1.26571 8.63695 1.35972C8.60098 1.45372 8.58283 1.5543 8.58353 1.6557L8.56437 3.95953L2.00051 3.90494C1.80735 3.90334 1.62141 3.98314 1.48362 4.12679C1.34582 4.27045 1.26745 4.46618 1.26575 4.67095L1.20796 11.6195L2.66466 11.6316L2.71602 5.45512L8.55153 5.50365L8.5375 7.18983C7.68995 7.50398 7.07104 8.35279 7.06273 9.35183C7.05218 10.6211 8.02965 11.6762 9.22851 11.6862C10.4259 11.6961 11.4223 10.6574 11.4328 9.38817C11.4411 8.38913 10.835 7.53013 9.9942 7.20194L10.0082 5.51576L31.8586 5.69747L31.8446 7.38365C30.997 7.6978 30.3781 8.54661 30.3698 9.54565C30.3592 10.8149 31.3367 11.87 32.5356 11.88C33.733 11.89 34.7293 10.8513 34.7399 9.58199C34.7482 8.58295 34.142 7.72395 33.3013 7.39576L33.3153 5.70958L39.1508 5.75811L39.0994 11.9346L40.5561 11.9467L40.6139 4.99816C40.6156 4.7934 40.5405 4.59639 40.4051 4.45046C40.2697 4.30454 40.0852 4.22165 39.892 4.22005L33.3281 4.16546L33.3473 1.86164C33.3497 1.75818 33.3325 1.65528 33.2967 1.55905C33.2608 1.46282 33.2071 1.37523 33.1387 1.30148C33.0703 1.22773 32.9885 1.16933 32.8984 1.12975C32.8082 1.09017 32.7114 1.07021 32.6138 1.07107C32.5181 1.07188 32.4236 1.09267 32.3354 1.13223C32.2473 1.17179 32.1674 1.22936 32.1002 1.30165C32.0331 1.37394 31.98 1.45953 31.944 1.55354C31.908 1.64754 31.8899 1.74812 31.8906 1.84952L31.8714 4.15335L10.0211 3.97164L10.0402 1.66782C10.0427 1.56436 10.0254 1.46146 9.98961 1.36523C9.95378 1.269 9.90005 1.18141 9.83163 1.10766C9.76321 1.03391 9.68148 0.975511 9.59131 0.935929C9.50114 0.896347 9.40437 0.876392 9.30674 0.877249ZM9.17395 8.61272C9.22618 8.61918 9.27893 8.61961 9.33127 8.61403C9.50964 8.63146 9.67516 8.71964 9.79472 8.86093C9.91428 9.00221 9.97906 9.18619 9.97612 9.37606C9.9725 9.8115 9.65214 10.1455 9.24135 10.1421C9.14531 10.1427 9.05014 10.123 8.96147 10.0839C8.8728 10.0449 8.79244 9.98742 8.72513 9.91487C8.65782 9.84232 8.60493 9.75618 8.5696 9.66155C8.53427 9.56692 8.5172 9.46573 8.51942 9.36395C8.52279 8.95939 8.80506 8.65135 9.17395 8.61272ZM32.481 8.80654C32.5333 8.813 32.586 8.81343 32.6383 8.80785C32.8167 8.82528 32.9822 8.91346 33.1018 9.05475C33.2213 9.19604 33.2861 9.38001 33.2832 9.56988C33.2796 10.0053 32.9592 10.3393 32.5484 10.3359C32.4524 10.3365 32.3572 10.3168 32.2685 10.2777C32.1799 10.2387 32.0995 10.1812 32.0322 10.1087C31.9649 10.0361 31.912 9.95 31.8767 9.85537C31.8413 9.76074 31.8243 9.65955 31.8265 9.55777C31.8299 9.15321 32.1121 8.84517 32.481 8.80654ZM1.93221 13.1697C1.73904 13.1681 1.55311 13.2479 1.41531 13.3916C1.27752 13.5352 1.19915 13.731 1.19744 13.9357L0.966308 41.7299C0.964606 41.9347 1.03971 42.1317 1.1751 42.2776C1.31048 42.4235 1.49506 42.5064 1.68823 42.508L39.5622 42.823C39.7554 42.8246 39.9413 42.7448 40.0791 42.6011C40.2169 42.4575 40.2953 42.2617 40.297 42.057L40.5281 14.2628C40.5298 14.058 40.4547 13.861 40.3193 13.7151C40.1839 13.5692 39.9994 13.4863 39.8062 13.4847L1.93221 13.1697ZM2.64772 14.7199L39.065 15.0228L38.8467 41.2728L2.42942 40.9699L2.64772 14.7199ZM16.4734 16.3791C16.2803 16.3775 16.0943 16.4573 15.9565 16.601C15.8188 16.7446 15.7404 16.9403 15.7387 17.1451L15.713 20.2334C15.7113 20.4381 15.7864 20.6351 15.9218 20.7811C16.0572 20.927 16.2418 21.0099 16.4349 21.0115L19.3483 21.0357C19.5415 21.0373 19.7274 20.9575 19.8652 20.8139C20.003 20.6702 20.0814 20.4745 20.0831 20.2697L20.1088 17.1815C20.1105 16.9767 20.0354 16.7797 19.9 16.6338C19.7646 16.4878 19.58 16.4049 19.3868 16.4033L16.4734 16.3791ZM22.3002 16.4276C22.107 16.426 21.9211 16.5058 21.7833 16.6494C21.6455 16.7931 21.5672 16.9888 21.5654 17.1936L21.5398 20.2818C21.5381 20.4866 21.6132 20.6836 21.7486 20.8295C21.8839 20.9754 22.0685 21.0583 22.2617 21.0599L25.1751 21.0842C25.3682 21.0858 25.5542 21.006 25.692 20.8623C25.8298 20.7187 25.9081 20.5229 25.9098 20.3182L25.9355 17.2299C25.9372 17.0251 25.8621 16.8281 25.7267 16.6822C25.5913 16.5363 25.4068 16.4534 25.2136 16.4518L22.3002 16.4276ZM28.127 16.476C27.9338 16.4744 27.7479 16.5542 27.6101 16.6979C27.4723 16.8415 27.3939 17.0373 27.3922 17.242L27.3665 20.3303C27.3648 20.535 27.4399 20.732 27.5753 20.878C27.7107 21.0239 27.8953 21.1068 28.0885 21.1084L31.0018 21.1326C31.195 21.1342 31.3809 21.0544 31.5187 20.9108C31.6565 20.7671 31.7349 20.5714 31.7366 20.3666L31.7623 17.2784C31.764 17.0736 31.6889 16.8766 31.5535 16.7307C31.4181 16.5847 31.2335 16.5019 31.0404 16.5002L28.127 16.476ZM33.9537 16.5245C33.7606 16.5229 33.5746 16.6027 33.4369 16.7463C33.2991 16.89 33.2207 17.0857 33.219 17.2905L33.1933 20.3787C33.1916 20.5835 33.2667 20.7805 33.4021 20.9264C33.5375 21.0723 33.7221 21.1552 33.9152 21.1568L36.8286 21.1811C37.0218 21.1827 37.2077 21.1029 37.3455 20.9592C37.4833 20.8156 37.5617 20.6198 37.5634 20.4151L37.5891 17.3268C37.5908 17.1221 37.5157 16.925 37.3803 16.7791C37.2449 16.6332 37.0603 16.5503 36.8671 16.5487L33.9537 16.5245ZM13.5309 17.4109C13.3422 17.4138 13.1619 17.4942 13.0279 17.6353L11.5967 19.1135L11.1447 18.6326C11.0777 18.5588 10.9975 18.4999 10.9088 18.4593C10.8201 18.4188 10.7246 18.3973 10.628 18.3963C10.5313 18.3952 10.4354 18.4145 10.3458 18.4531C10.2563 18.4917 10.1748 18.5489 10.1063 18.6212C10.0377 18.6934 9.98338 18.7795 9.94647 18.8742C9.90957 18.9689 9.89082 19.0705 9.8913 19.1729C9.89179 19.2754 9.91152 19.3767 9.94932 19.471C9.98713 19.5652 10.0423 19.6506 10.1115 19.722L11.0703 20.7429C11.2055 20.8869 11.3888 20.9686 11.5805 20.9702C11.7722 20.9718 11.9569 20.8932 12.0944 20.7515L14.0443 18.7417C14.151 18.6346 14.2246 18.4958 14.2557 18.3436C14.2867 18.1914 14.2736 18.0328 14.218 17.8888C14.1625 17.7447 14.0672 17.6218 13.9446 17.5363C13.8219 17.4507 13.6777 17.4065 13.5309 17.4093L13.5309 17.4109ZM5.53542 17.8324L5.52258 19.3765L6.97927 19.3886L6.99211 17.8445L5.53542 17.8324ZM17.189 17.9293L18.6456 17.9414L18.6328 19.4855L17.1761 19.4734L17.189 17.9293ZM23.0157 17.9777L24.4724 17.9899L24.4596 19.534L23.0029 19.5219L23.0157 17.9777ZM28.8425 18.0262L30.2992 18.0383L30.2863 19.5824L28.8296 19.5703L28.8425 18.0262ZM34.6693 18.0747L36.1259 18.0868L36.1131 19.6309L34.6564 19.6188L34.6693 18.0747ZM4.76855 22.4587C4.57538 22.4571 4.38945 22.5369 4.25165 22.6805C4.11385 22.8242 4.03548 23.0199 4.03378 23.2247L4.0081 26.3129C4.0064 26.5177 4.0815 26.7147 4.21689 26.8606C4.35228 27.0065 4.53686 27.0894 4.73003 27.091L7.64341 27.1153C7.83658 27.1169 8.02251 27.0371 8.16031 26.8934C8.2981 26.7498 8.37647 26.554 8.37817 26.3493L8.40386 23.261C8.40556 23.0563 8.33046 22.8592 8.19507 22.7133C8.05968 22.5674 7.8751 22.4845 7.68193 22.4829L4.76855 22.4587ZM10.5953 22.5071C10.4021 22.5055 10.2162 22.5853 10.0784 22.729C9.94062 22.8726 9.86225 23.0684 9.86055 23.2731L9.83487 26.3614C9.83316 26.5661 9.90827 26.7632 10.0437 26.9091C10.179 27.055 10.3636 27.1379 10.5568 27.1395L13.4702 27.1637C13.6633 27.1653 13.8493 27.0855 13.9871 26.9419C14.1249 26.7982 14.2032 26.6025 14.2049 26.3977L14.2306 23.3095C14.2323 23.1047 14.1572 22.9077 14.0218 22.7618C13.8865 22.6158 13.7019 22.533 13.5087 22.5314L10.5953 22.5071ZM16.4221 22.5556C16.2289 22.554 16.043 22.6338 15.9052 22.7774C15.7674 22.9211 15.689 23.1168 15.6873 23.3216L15.6616 26.4098C15.6599 26.6146 15.735 26.8116 15.8704 26.9575C16.0058 27.1035 16.1904 27.1863 16.3836 27.1879L19.2969 27.2122C19.4901 27.2138 19.676 27.134 19.8138 26.9903C19.9516 26.8467 20.03 26.6509 20.0317 26.4462L20.0574 23.3579C20.0591 23.1532 19.984 22.9562 19.8486 22.8102C19.7132 22.6643 19.5286 22.5814 19.3355 22.5798L16.4221 22.5556ZM22.2489 22.604C22.0557 22.6024 21.8697 22.6822 21.732 22.8259C21.5942 22.9695 21.5158 23.1653 21.5141 23.37L21.4884 26.4583C21.4867 26.6631 21.5618 26.8601 21.6972 27.006C21.8326 27.1519 22.0172 27.2348 22.2103 27.2364L25.1237 27.2606C25.3169 27.2622 25.5028 27.1824 25.6406 27.0388C25.7784 26.8951 25.8568 26.6994 25.8585 26.4946L25.8842 23.4064C25.8859 23.2016 25.8108 23.0046 25.6754 22.8587C25.54 22.7128 25.3554 22.6299 25.1622 22.6283L22.2489 22.604ZM33.9024 22.701C33.7092 22.6993 33.5233 22.7791 33.3855 22.9228C33.2477 23.0665 33.1693 23.2622 33.1676 23.467L33.1419 26.5552C33.1402 26.76 33.2153 26.957 33.3507 27.1029C33.4861 27.2488 33.6707 27.3317 33.8639 27.3333L36.7772 27.3575C36.9704 27.3591 37.1564 27.2793 37.2941 27.1357C37.4319 26.992 37.5103 26.7963 37.512 26.5915L37.5377 23.5033C37.5394 23.2985 37.4643 23.1015 37.3289 22.9556C37.1935 22.8097 37.0089 22.7268 36.8158 22.7252L33.9024 22.701ZM30.9627 23.7328C30.774 23.7357 30.5937 23.8161 30.4597 23.9571L29.0256 25.4354L28.5736 24.9545C28.5066 24.8807 28.4264 24.8218 28.3377 24.7812C28.249 24.7406 28.1535 24.7192 28.0569 24.7181C27.9602 24.717 27.8643 24.7364 27.7748 24.775C27.6852 24.8136 27.6038 24.8707 27.5352 24.943C27.4666 25.0153 27.4123 25.1013 27.3754 25.196C27.3385 25.2908 27.3198 25.3923 27.3202 25.4948C27.3207 25.5972 27.3405 25.6986 27.3783 25.7928C27.4161 25.8871 27.4712 25.9724 27.5405 26.0438L28.4993 27.0648C28.6344 27.2088 28.8177 27.2904 29.0094 27.292C29.2012 27.2936 29.3858 27.215 29.5233 27.0733L31.4761 25.0635C31.5828 24.9564 31.6565 24.8177 31.6875 24.6655C31.7185 24.5133 31.7054 24.3547 31.6499 24.2106C31.5944 24.0666 31.499 23.9437 31.3764 23.8581C31.2538 23.7726 31.1096 23.7299 30.9627 23.7328ZM5.48405 24.0089L6.94075 24.021L6.9279 25.5651L5.47121 25.553L5.48405 24.0089ZM11.3108 24.0573L12.7675 24.0694L12.7547 25.6135L11.298 25.6014L11.3108 24.0573ZM17.1376 24.1058L18.5943 24.1179L18.5814 25.662L17.1247 25.6499L17.1376 24.1058ZM22.9644 24.1542L24.421 24.1663L24.4082 25.7105L22.9515 25.6983L22.9644 24.1542ZM34.6179 24.2511L36.0746 24.2632L36.0617 25.8074L34.605 25.7953L34.6179 24.2511ZM4.71719 28.6352C4.52402 28.6336 4.33808 28.7134 4.20029 28.857C4.06249 29.0007 3.98412 29.1964 3.98242 29.4012L3.95674 32.4894C3.95503 32.6942 4.03014 32.8912 4.16552 33.0371C4.30091 33.183 4.48549 33.2659 4.67866 33.2675L7.59205 33.2917C7.78522 33.2934 7.97115 33.2136 8.10894 33.0699C8.24674 32.9262 8.32511 32.7305 8.32681 32.5257L8.35249 29.4375C8.3542 29.2327 8.27909 29.0357 8.14371 28.8898C8.00832 28.7439 7.82374 28.661 7.63057 28.6594L4.71719 28.6352ZM10.544 28.6836C10.3508 28.682 10.1648 28.7618 10.0271 28.9055C9.88926 29.0491 9.81089 29.2449 9.80919 29.4496L9.7835 32.5379C9.7818 32.7426 9.8569 32.9396 9.99229 33.0856C10.1277 33.2315 10.3123 33.3144 10.5054 33.316L13.4188 33.3402C13.612 33.3418 13.7979 33.262 13.9357 33.1184C14.0735 32.9747 14.1519 32.779 14.1536 32.5742L14.1793 29.486C14.181 29.2812 14.1059 29.0842 13.9705 28.9383C13.8351 28.7923 13.6505 28.7094 13.4573 28.7078L10.544 28.6836ZM22.1975 28.7805C22.0043 28.7789 21.8184 28.8587 21.6806 29.0024C21.5428 29.146 21.4644 29.3418 21.4627 29.5465L21.437 32.6348C21.4353 32.8395 21.5104 33.0365 21.6458 33.1825C21.7812 33.3284 21.9658 33.4113 22.159 33.4129L25.0723 33.4371C25.2655 33.4387 25.4515 33.3589 25.5892 33.2153C25.727 33.0716 25.8054 32.8759 25.8071 32.6711L25.8328 29.5829C25.8345 29.3781 25.7594 29.1811 25.624 29.0352C25.4886 28.8892 25.304 28.8064 25.1109 28.8048L22.1975 28.7805ZM28.0243 28.829C27.8311 28.8274 27.6452 28.9072 27.5074 29.0508C27.3696 29.1945 27.2912 29.3902 27.2895 29.595L27.2638 32.6832C27.2621 32.888 27.3372 33.085 27.4726 33.2309C27.608 33.3768 27.7926 33.4597 27.9857 33.4613L30.8991 33.4856C31.0923 33.4872 31.2782 33.4074 31.416 33.2637C31.5538 33.1201 31.6322 32.9243 31.6339 32.7196L31.6596 29.6313C31.6613 29.4266 31.5862 29.2295 31.4508 29.0836C31.3154 28.9377 31.1308 28.8548 30.9376 28.8532L28.0243 28.829ZM33.851 28.8774C33.6579 28.8758 33.4719 28.9556 33.3341 29.0993C33.1963 29.2429 33.118 29.4387 33.1163 29.6434L33.0906 32.7317C33.0889 32.9364 33.164 33.1335 33.2994 33.2794C33.4347 33.4253 33.6193 33.5082 33.8125 33.5098L36.7259 33.534C36.9191 33.5356 37.105 33.4558 37.2428 33.3122C37.3806 33.1685 37.4589 32.9728 37.4606 32.768L37.4863 29.6798C37.488 29.475 37.4129 29.278 37.2775 29.1321C37.1422 28.9861 36.9576 28.9033 36.7644 28.9017L33.851 28.8774ZM19.2579 29.8092C19.0682 29.8114 18.8867 29.8918 18.7519 30.0336L17.3207 31.5149L16.8687 31.034C16.8017 30.9602 16.7215 30.9013 16.6328 30.8608C16.5441 30.8202 16.4486 30.7987 16.352 30.7977C16.2553 30.7966 16.1594 30.8159 16.0699 30.8545C15.9803 30.8932 15.8989 30.9503 15.8303 31.0226C15.7617 31.0949 15.7074 31.1809 15.6705 31.2756C15.6336 31.3703 15.6149 31.4719 15.6153 31.5744C15.6158 31.6768 15.6356 31.7781 15.6734 31.8724C15.7112 31.9666 15.7663 32.052 15.8356 32.1234L16.7944 33.1444C16.9295 33.2883 17.1128 33.37 17.3045 33.3716C17.4963 33.3732 17.6809 33.2946 17.8184 33.1529L19.7683 31.14C19.8748 31.0331 19.9484 30.8946 19.9795 30.7427C20.0106 30.5908 19.9977 30.4325 19.9426 30.2886C19.8874 30.1446 19.7926 30.0217 19.6704 29.9359C19.5482 29.8502 19.4045 29.807 19.2579 29.8092ZM5.43269 30.1853L6.88938 30.1974L6.87654 31.7416L5.41985 31.7295L5.43269 30.1853ZM11.2595 30.2338L12.7161 30.2459L12.7033 31.79L11.2466 31.7779L11.2595 30.2338ZM22.913 30.3307L24.3697 30.3428L24.3568 31.8869L22.9002 31.8748L22.913 30.3307ZM28.7398 30.3792L30.1965 30.3913L30.1836 31.9354L28.7269 31.9233L28.7398 30.3792ZM34.5665 30.4276L36.0232 30.4397L36.0104 31.9838L34.5537 31.9717L34.5665 30.4276ZM4.66582 34.8116C4.47265 34.81 4.28672 34.8898 4.14892 35.0335C4.01113 35.1771 3.93276 35.3729 3.93106 35.5776L3.90537 38.6659C3.90367 38.8706 3.97877 39.0677 4.11416 39.2136C4.24955 39.3595 4.43413 39.4424 4.6273 39.444L7.54068 39.4682C7.73385 39.4698 7.91979 39.39 8.05758 39.2464C8.19538 39.1027 8.27375 38.907 8.27545 38.7022L8.30113 35.614C8.30283 35.4092 8.22773 35.2122 8.09234 35.0663C7.95696 34.9204 7.77237 34.8375 7.57921 34.8359L4.66582 34.8116ZM10.4926 34.8601C10.2994 34.8585 10.1135 34.9383 9.97569 35.0819C9.83789 35.2256 9.75953 35.4213 9.75782 35.6261L9.73214 38.7143C9.73044 38.9191 9.80554 39.1161 9.94093 39.262C10.0763 39.408 10.2609 39.4908 10.4541 39.4924L13.3674 39.5167C13.5606 39.5183 13.7466 39.4385 13.8843 39.2948C14.0221 39.1512 14.1005 38.9554 14.1022 38.7507L14.1279 35.6624C14.1296 35.4577 14.0545 35.2607 13.9191 35.1147C13.7837 34.9688 13.5991 34.8859 13.406 34.8843L10.4926 34.8601ZM5.38133 36.3618L6.83802 36.3739L6.82518 37.918L5.36849 37.9059L5.38133 36.3618ZM11.2081 36.4103L12.6648 36.4224L12.6519 37.9665L11.1953 37.9544L11.2081 36.4103ZM17.0349 36.4587L17.022 38.0028L18.4787 38.015L18.4916 36.4708L17.0349 36.4587ZM22.8616 36.5072L22.8488 38.0513L24.3055 38.0634L24.3183 36.5193L22.8616 36.5072ZM28.6884 36.5556L28.6756 38.0998L30.1322 38.1119L30.1451 36.5677L28.6884 36.5556ZM34.5152 36.6041L34.5023 38.1482L35.959 38.1603L35.9719 36.6162L34.5152 36.6041Z" fill="#5F68EB"/>
<path d="M49.4394 17.3767L44.8869 20.8033L40.3344 24.23L44.817 27.7477L49.2996 31.2653L50.893 30.0659L52.4864 28.8666L49.5727 26.5801L46.659 24.2937L49.6181 22.0663L52.5773 19.839L51.0083 18.6078L49.4394 17.3767ZM62.9921 17.5131L61.3988 18.7124L59.8054 19.9118L62.7191 22.1982L65.6328 24.4847L62.6736 26.712L59.7145 28.9394L61.2834 30.1705L62.8523 31.4017L67.4049 27.975L71.9574 24.5483L67.4748 21.0307L62.9921 17.5131ZM76.2292 43.8464L75.3796 41.1779C75.3248 41.0079 75.2261 40.8479 75.0893 40.7075C74.9526 40.5671 74.7806 40.4492 74.5836 40.3608C74.3855 40.2709 74.1663 40.2124 73.9388 40.1886C73.7112 40.1648 73.4801 40.1764 73.2589 40.2225L62.9545 42.3481L55.9886 40.0139L64.8493 38.3616C65.4552 37.9525 65.8976 37.4195 66.1253 36.824L65.4511 34.9004L46.9884 36.4508L35.6945 36.3371L35.5896 46.7536L46.8836 46.8672L56.9296 48.6421C57.4763 48.6858 58.0273 48.6814 58.572 48.6291L75.005 45.4019C75.4355 45.3169 75.8053 45.1064 76.0365 44.815C76.2655 44.5247 76.3348 44.1774 76.2292 43.8464ZM42.3835 45.0857L37.8659 45.0402L37.9358 38.0959L37.1243 45.7747L42.3835 45.0857ZM58.0016 46.9479C57.8994 46.9666 57.7947 46.976 57.6896 46.976C57.6022 46.9759 57.43 46.9526 57.43 46.9526L53.3381 39.4801L50.3868 41.0649L63.5411 36.8119L51.471 39.9684L57.4182 48.1316L63.5463 46.5789L75.0207 43.836L73.3223 42.0097L73.9004 43.8247L58.0016 46.9479Z" fill="#00D1FF"/>
</svg>
