<svg width="15" height="15" viewBox="0 0 15 15" fill="none" xmlns="http://www.w3.org/2000/svg">
<circle cx="10" cy="3" r="2" fill="white"/>
<circle cx="5" cy="12" r="2" fill="white"/>
<path d="M5.00038 9.54288C5.55465 9.54272 6.09324 9.74352 6.53146 10.1137C6.96969 10.4839 7.2827 11.0024 7.42126 11.5878H14.3739C14.5301 11.5875 14.6807 11.6509 14.7961 11.7657C14.9115 11.8805 14.9833 12.0382 14.9974 12.2078C15.0116 12.3775 14.9669 12.5467 14.8723 12.6823C14.7778 12.8178 14.6401 12.9098 14.4864 12.9401L14.3739 12.951L7.42126 12.9524C7.28316 13.5383 6.97036 14.0574 6.53209 14.4281C6.09382 14.7988 5.55497 15 5.00038 15C4.44579 15 3.90695 14.7988 3.46868 14.4281C3.03041 14.0574 2.71761 13.5383 2.57951 12.9524L0.626056 12.951C0.469897 12.9514 0.31929 12.8879 0.203892 12.7731C0.0884934 12.6584 0.0166671 12.5006 0.00255739 12.331C-0.0115523 12.1614 0.0330771 11.9921 0.127657 11.8566C0.222237 11.721 0.359913 11.629 0.513573 11.5987L0.626056 11.5878H2.57951C2.71807 11.0024 3.03108 10.4839 3.4693 10.1137C3.90753 9.74352 4.44612 9.54272 5.00038 9.54288ZM5.00038 10.9061C4.66891 10.9061 4.35102 11.0498 4.11664 11.3054C3.88225 11.5611 3.75058 11.9079 3.75058 12.2694C3.75058 12.631 3.88225 12.9777 4.11664 13.2334C4.35102 13.489 4.66891 13.6327 5.00038 13.6327C5.33185 13.6327 5.64975 13.489 5.88413 13.2334C6.11852 12.9777 6.25019 12.631 6.25019 12.2694C6.25019 11.9079 6.11852 11.5611 5.88413 11.3054C5.64975 11.0498 5.33185 10.9061 5.00038 10.9061ZM9.99961 8.81237e-08C10.5539 -0.000153569 11.0925 0.20064 11.5307 0.570808C11.9689 0.940975 12.2819 1.45952 12.4205 2.0449H14.3739C14.5301 2.04459 14.6807 2.10806 14.7961 2.22282C14.9115 2.33758 14.9833 2.49531 14.9974 2.66495C15.0116 2.83458 14.9669 3.00384 14.8723 3.13938C14.7778 3.27492 14.6401 3.36692 14.4864 3.39726L14.3739 3.40817L12.4205 3.40953C12.2824 3.99541 11.9696 4.51456 11.5313 4.88525C11.093 5.25594 10.5542 5.45713 9.99961 5.45713C9.44502 5.45713 8.90618 5.25594 8.46791 4.88525C8.02964 4.51456 7.71684 3.99541 7.57874 3.40953L0.626056 3.40817C0.469897 3.40848 0.31929 3.34501 0.203892 3.23025C0.0884934 3.11549 0.0166671 2.95776 0.00255739 2.78813C-0.0115523 2.61849 0.0330771 2.44923 0.127657 2.3137C0.222237 2.17816 0.359913 2.08615 0.513573 2.05581L0.626056 2.0449H7.57874C7.7173 1.45952 8.03031 0.940975 8.46854 0.570808C8.90676 0.20064 9.44535 -0.000153569 9.99961 8.81237e-08ZM9.99961 1.36327C9.66815 1.36327 9.35025 1.5069 9.11587 1.76256C8.88148 2.01822 8.74981 2.36497 8.74981 2.72654C8.74981 3.0881 8.88148 3.43485 9.11587 3.69051C9.35025 3.94617 9.66815 4.0898 9.99961 4.0898C10.3311 4.0898 10.649 3.94617 10.8834 3.69051C11.1177 3.43485 11.2494 3.0881 11.2494 2.72654C11.2494 2.36497 11.1177 2.01822 10.8834 1.76256C10.649 1.5069 10.3311 1.36327 9.99961 1.36327Z" fill="white"/>
</svg>
