<svg width="26" height="28" viewBox="0 0 26 28" fill="none" xmlns="http://www.w3.org/2000/svg">
<path d="M18.3984 7.40874L24.375 10.3218V25.4697L16.7685 21.9741M16.7685 21.9741L8.07528 25.4697M16.7685 21.9741V13.8175M8.07528 25.4697L0.46875 21.9741V6.82613L5.90199 9.15658M8.07528 25.4697V13.8175M12.4219 18.7965C12.4219 18.7965 5.90199 13.2349 5.90199 7.99135C5.90199 3.62176 9.16193 1 12.4219 1C15.6818 1 18.9418 3.62176 18.9418 7.99135C18.9418 13.2349 12.4219 18.7965 12.4219 18.7965ZM13.5085 7.99135C13.5085 7.68231 13.394 7.38593 13.1903 7.16741C12.9865 6.94889 12.7101 6.82613 12.4219 6.82613C12.1337 6.82613 11.8573 6.94889 11.6535 7.16741C11.4497 7.38593 11.3352 7.68231 11.3352 7.99135C11.3352 8.30039 11.4497 8.59677 11.6535 8.81529C11.8573 9.03381 12.1337 9.15658 12.4219 9.15658C12.7101 9.15658 12.9865 9.03381 13.1903 8.81529C13.394 8.59677 13.5085 8.30039 13.5085 7.99135Z" stroke="#5F68EB" stroke-width="2"/>
</svg>
