<svg width="30" height="33" viewBox="0 0 30 33" fill="none" xmlns="http://www.w3.org/2000/svg">
<g clip-path="url(#clip0_459_957)">
<path d="M18.3984 11.7281L24.375 14.6411V29.7891L16.7685 26.2934M16.7685 26.2934L8.07528 29.7891M16.7685 26.2934V18.1368M8.07528 29.7891L0.46875 26.2934V11.1455L5.90199 13.4759M8.07528 29.7891V18.1368M12.4219 23.1158C12.4219 23.1158 5.90199 17.5542 5.90199 12.3107C5.90199 7.94109 9.16193 5.31934 12.4219 5.31934C15.6818 5.31934 18.9418 7.94109 18.9418 12.3107C18.9418 17.5542 12.4219 23.1158 12.4219 23.1158ZM13.5085 12.3107C13.5085 12.0016 13.394 11.7053 13.1903 11.4867C12.9865 11.2682 12.7101 11.1455 12.4219 11.1455C12.1337 11.1455 11.8573 11.2682 11.6535 11.4867C11.4497 11.7053 11.3352 12.0016 11.3352 12.3107C11.3352 12.6197 11.4497 12.9161 11.6535 13.1346C11.8573 13.3531 12.1337 13.4759 12.4219 13.4759C12.7101 13.4759 12.9865 13.3531 13.1903 13.1346C13.394 12.9161 13.5085 12.6197 13.5085 12.3107Z" stroke="#5F68EB" stroke-width="2"/>
</g>
<defs>
<clipPath id="clip0_459_957">
<rect width="30" height="32.449" fill="white"/>
</clipPath>
</defs>
</svg>
