<svg width="29" height="34" viewBox="0 0 29 34" fill="none" xmlns="http://www.w3.org/2000/svg">
<path d="M27.5 20.5706C27.5 27.0525 21.7902 32.4996 14.5 32.4996C7.20984 32.4996 1.5 27.0525 1.5 20.5706C1.5 14.0887 7.20984 8.6416 14.5 8.6416C21.7902 8.6416 27.5 14.0887 27.5 20.5706Z" stroke="#5F68EB" stroke-width="3"/>
<path d="M8.81305 23.161C8.23038 23.161 7.74738 22.9847 7.36405 22.632C6.99605 22.264 6.81205 21.8117 6.81205 21.275C6.81205 20.7383 6.99605 20.2937 7.36405 19.941C7.74738 19.573 8.23038 19.389 8.81305 19.389C9.38038 19.389 9.84805 19.573 10.216 19.941C10.584 20.2937 10.768 20.7383 10.768 21.275C10.768 21.8117 10.584 22.264 10.216 22.632C9.84805 22.9847 9.38038 23.161 8.81305 23.161ZM14.7877 23.161C14.205 23.161 13.722 22.9847 13.3387 22.632C12.9707 22.264 12.7867 21.8117 12.7867 21.275C12.7867 20.7383 12.9707 20.2937 13.3387 19.941C13.722 19.573 14.205 19.389 14.7877 19.389C15.355 19.389 15.8227 19.573 16.1907 19.941C16.5587 20.2937 16.7427 20.7383 16.7427 21.275C16.7427 21.8117 16.5587 22.264 16.1907 22.632C15.8227 22.9847 15.355 23.161 14.7877 23.161ZM20.7623 23.161C20.1796 23.161 19.6966 22.9847 19.3133 22.632C18.9453 22.264 18.7613 21.8117 18.7613 21.275C18.7613 20.7383 18.9453 20.2937 19.3133 19.941C19.6966 19.573 20.1796 19.389 20.7623 19.389C21.3296 19.389 21.7973 19.573 22.1653 19.941C22.5333 20.2937 22.7173 20.7383 22.7173 21.275C22.7173 21.8117 22.5333 22.264 22.1653 22.632C21.7973 22.9847 21.3296 23.161 20.7623 23.161Z" fill="#5F68EB"/>
</svg>
