<svg width="25" height="26" viewBox="0 0 25 26" fill="none" xmlns="http://www.w3.org/2000/svg">
<path d="M24.2764 3.9644C23.8149 3.33909 23.1637 2.87234 22.4156 2.63063L16.0436 0.550676C13.7329 -0.183559 11.2444 -0.183559 8.93367 0.550676L2.56301 2.63063C1.81831 2.87403 1.1706 3.34062 0.711536 3.9644C0.248316 4.59092 -0.000692547 5.3449 0.000144645 6.11845V12.8237C-0.0095634 14.6983 0.469554 16.5444 1.3921 18.1869C2.31465 19.8294 3.65008 21.214 5.27187 22.2095L10.5197 25.4412C11.1151 25.8064 11.8034 26 12.5059 26C13.2084 26 13.8967 25.8064 14.4921 25.4412L19.7399 22.2108C21.3507 21.2192 22.6782 19.8435 23.5981 18.2124C24.5181 16.5813 25.0003 14.7482 24.9997 12.8848V6.17955C25.0101 5.38369 24.757 4.60615 24.2764 3.9644ZM13.7435 13.436V16.3856C13.7435 16.7102 13.6119 17.0215 13.3775 17.2511C13.1432 17.4806 12.8254 17.6095 12.4939 17.6095C12.1625 17.6095 11.8447 17.4806 11.6104 17.2511C11.376 17.0215 11.2444 16.7102 11.2444 16.3856V13.436C10.3518 13.1453 9.59393 12.5529 9.10655 11.7649C8.61918 10.9768 8.43409 10.0446 8.58442 9.13509C8.73475 8.22559 9.21068 7.39818 9.92701 6.80101C10.6433 6.20385 11.5533 5.87591 12.4939 5.87591C13.4346 5.87591 14.3446 6.20385 15.0609 6.80101C15.7772 7.39818 16.2531 8.22559 16.4035 9.13509C16.5538 10.0446 16.3687 10.9768 15.8813 11.7649C15.394 12.5529 14.6361 13.1453 13.7435 13.436Z" fill="#5F68EB"/>
<path d="M13.9616 9.75353C13.9616 10.1331 13.8076 10.4972 13.5336 10.7656C13.2596 11.034 12.8879 11.1848 12.5003 11.1848C12.1128 11.1848 11.7411 11.034 11.4671 10.7656C11.193 10.4972 11.0391 10.1331 11.0391 9.75353C11.0391 9.37394 11.193 9.00989 11.4671 8.74147C11.7411 8.47306 12.1128 8.32227 12.5003 8.32227C12.8879 8.32227 13.2596 8.47306 13.5336 8.74147C13.8076 9.00989 13.9616 9.37394 13.9616 9.75353Z" fill="#5F68EB"/>
</svg>
