<svg width="15" height="15" viewBox="0 0 15 15" fill="none" xmlns="http://www.w3.org/2000/svg">
<path d="M8.28947 0V7.6927H6.71053V0H8.28947ZM11.2737 1.3293L11.9124 1.7824C13.1928 2.69011 14.1455 3.96941 14.6341 5.43703C15.1226 6.90466 15.122 8.4853 14.6322 9.95253C14.1424 11.4198 13.1886 12.6983 11.9074 13.605C10.6262 14.5117 9.08342 15 7.5 15C5.91658 15 4.37378 14.5117 3.09261 13.605C1.81144 12.6983 0.857635 11.4198 0.367837 9.95253C-0.121962 8.4853 -0.122627 6.90466 0.365937 5.43703C0.854501 3.96941 1.80723 2.69011 3.08763 1.7824L3.72553 1.32853L4.65553 2.57244L4.01763 3.02631C3.00653 3.74277 2.2541 4.75269 1.86815 5.91139C1.48221 7.07008 1.48255 8.31807 1.86914 9.47656C2.25572 10.635 3.00871 11.6446 4.02021 12.3605C5.03171 13.0764 6.24981 13.462 7.5 13.462C8.75019 13.462 9.96829 13.0764 10.9798 12.3605C11.9913 11.6446 12.7443 10.635 13.1309 9.47656C13.5174 8.31807 13.5178 7.07008 13.1318 5.91139C12.7459 4.75269 11.9935 3.74277 10.9824 3.02631L10.3445 2.57244L11.2737 1.3293Z" fill="#00D1FF"/>
</svg>
