<svg width="20" height="22" viewBox="0 0 20 22" fill="none" xmlns="http://www.w3.org/2000/svg">
<path d="M10 16.7619C10.663 16.7619 11.2989 16.5412 11.7678 16.1482C12.2366 15.7553 12.5 15.2224 12.5 14.6667C12.5 14.111 12.2366 13.578 11.7678 13.1851C11.2989 12.7922 10.663 12.5714 10 12.5714C9.33696 12.5714 8.70107 12.7922 8.23223 13.1851C7.76339 13.578 7.5 14.111 7.5 14.6667C7.5 15.2224 7.76339 15.7553 8.23223 16.1482C8.70107 16.5412 9.33696 16.7619 10 16.7619ZM17.5 7.33333C18.163 7.33333 18.7989 7.55408 19.2678 7.94702C19.7366 8.33995 20 8.87288 20 9.42857V19.9048C20 20.4605 19.7366 20.9934 19.2678 21.3863C18.7989 21.7793 18.163 22 17.5 22H2.5C1.83696 22 1.20107 21.7793 0.732233 21.3863C0.263392 20.9934 0 20.4605 0 19.9048V9.42857C0 8.87288 0.263392 8.33995 0.732233 7.94702C1.20107 7.55408 1.83696 7.33333 2.5 7.33333H3.75V5.2381C3.75 3.84887 4.40848 2.51654 5.58058 1.5342C6.75269 0.551869 8.3424 0 10 0C10.8208 0 11.6335 0.135487 12.3918 0.398726C13.1501 0.661965 13.8391 1.0478 14.4194 1.5342C14.9998 2.0206 15.4602 2.59805 15.7742 3.23356C16.0883 3.86908 16.25 4.55022 16.25 5.2381V7.33333H17.5ZM10 2.09524C9.00544 2.09524 8.05161 2.42636 7.34835 3.01576C6.64509 3.60516 6.25 4.40456 6.25 5.2381V7.33333H13.75V5.2381C13.75 4.40456 13.3549 3.60516 12.6517 3.01576C11.9484 2.42636 10.9946 2.09524 10 2.09524Z" fill="#5F68EB"/>
</svg>
